<?xml version="1.0" standalone="no"?>
<!DOCTYPE svg PUBLIC "-//W3C//DTD SVG 20010904//EN"
 "http://www.w3.org/TR/2001/REC-SVG-20010904/DTD/svg10.dtd">
<svg version="1.0" xmlns="http://www.w3.org/2000/svg"
 width="1024.000000pt" height="1536.000000pt" viewBox="0 0 1024.000000 1536.000000"
 preserveAspectRatio="xMidYMid meet">

<g transform="translate(0.000000,1536.000000) scale(0.100000,-0.100000)"
fill="#000000" stroke="none">
<path d="M900 14896 c-88 -20 -131 -36 -194 -74 -119 -71 -215 -201 -251 -338
-13 -52 -15 -784 -15 -6799 0 -6002 2 -6747 15 -6800 28 -108 72 -184 154
-265 81 -80 145 -119 251 -153 l65 -20 4185 0 c4141 1 4186 1 4255 21 114 32
193 77 266 152 77 80 134 182 154 277 13 59 15 994 15 6778 0 4462 -4 6732
-10 6775 -6 39 -27 99 -52 150 -72 147 -198 248 -363 290 -78 20 -111 20
-4249 19 -3247 -1 -4183 -4 -4226 -13z m485 -161 c39 -15 93 -39 120 -53 58
-29 181 -151 240 -238 21 -32 61 -87 87 -121 26 -35 48 -64 48 -67 0 -2 -17
-2 -38 1 -67 9 -273 -15 -347 -40 -194 -66 -350 -181 -480 -354 l-63 -83 -60
40 c-109 73 -247 245 -287 357 -40 114 -28 273 27 370 84 147 182 201 378 212
219 12 298 7 375 -24z m5325 31 c0 -3 -26 -22 -57 -43 -80 -52 -191 -159 -214
-205 -31 -61 -43 -142 -28 -202 15 -63 37 -108 107 -216 112 -172 149 -283
139 -414 -11 -135 -93 -247 -287 -396 -146 -113 -205 -218 -181 -324 28 -123
116 -202 309 -277 49 -19 114 -72 128 -105 19 -45 18 -78 -5 -123 -22 -42 -54
-71 -196 -176 -203 -149 -283 -250 -335 -423 -19 -62 -21 -88 -17 -175 3 -56
9 -114 12 -129 7 -26 7 -26 -26 -15 -19 7 -39 15 -45 19 -12 8 -247 69 -339
88 -93 19 -90 16 -70 48 40 61 124 149 215 222 118 96 155 137 191 215 69 149
54 300 -42 421 -36 46 -83 80 -174 129 -164 88 -238 154 -280 247 -24 54 -27
70 -23 137 4 64 11 88 42 148 42 80 101 137 231 223 146 97 208 153 242 216
65 124 65 198 -2 360 -106 256 -108 263 -108 360 -1 80 3 98 27 148 44 90 190
223 261 238 29 6 525 10 525 4z m-2060 -16 c0 -5 -5 -10 -11 -10 -5 0 -7 5 -4
10 3 6 8 10 11 10 2 0 4 -4 4 -10z m201 -17 c-8 -15 -10 -15 -11 -2 0 17 10
32 18 25 2 -3 -1 -13 -7 -23z m2399 23 c0 -3 -4 -8 -10 -11 -5 -3 -10 -1 -10
4 0 6 5 11 10 11 6 0 10 -2 10 -4z m-2733 -123 c-2 -21 -4 -6 -4 32 0 39 2 55
4 38 2 -18 2 -50 0 -70z m-420 65 c-3 -8 -6 -5 -6 6 -1 11 2 17 5 13 3 -3 4
-12 1 -19z m300 -85 c-2 -21 -4 -4 -4 37 0 41 2 58 4 38 2 -21 2 -55 0 -75z
m434 61 c-5 -16 -10 -21 -10 -12 -1 18 10 51 15 45 2 -1 -1 -16 -5 -33z m-734
-26 c-3 -7 -5 -2 -5 12 0 14 2 19 5 13 2 -7 2 -19 0 -25z m720 -60 c-2 -13 -4
-5 -4 17 -1 22 1 32 4 23 2 -10 2 -28 0 -40z m4653 -8 c-14 -10 -27 -17 -29
-14 -6 5 31 33 44 33 6 1 -1 -8 -15 -19z m-5387 -20 c-3 -12 -8 -19 -11 -16
-5 6 5 36 12 36 2 0 2 -9 -1 -20z m417 -17 c-11 -17 -11 -17 -6 0 3 10 6 24 7
30 0 9 2 9 5 0 3 -7 0 -20 -6 -30z m5121 -25 c30 -58 19 -56 -12 3 -15 27 -23
46 -18 43 5 -3 19 -23 30 -46z m-2438 3 c-4 -17 -8 -19 -14 -9 -7 11 -12 11
-31 -1 -15 -9 -19 -9 -11 -1 11 12 56 38 60 35 1 0 0 -11 -4 -24z m2222 9 c-3
-5 -12 -10 -18 -10 -7 0 -6 4 3 10 19 12 23 12 15 0z m-1425 -10 c0 -5 -10
-10 -22 -9 -22 0 -22 1 -3 9 11 5 21 9 23 9 1 1 2 -3 2 -9z m-3500 -37 c-11
-17 -11 -17 -6 0 3 10 6 24 7 30 0 9 2 9 5 0 3 -7 0 -20 -6 -30z m339 -27 c1
-42 -5 -29 -12 24 -4 30 -3 38 3 25 5 -11 9 -33 9 -49z m1752 41 c-10 -9 -11
-8 -5 6 3 10 9 15 12 12 3 -3 0 -11 -7 -18z m784 1 c22 -5 77 -27 123 -49 111
-52 135 -57 381 -68 198 -10 219 -13 304 -42 107 -37 160 -68 282 -171 123
-102 155 -134 217 -220 177 -241 306 -519 373 -801 55 -233 78 -680 46 -907
-43 -313 -126 -578 -252 -805 -72 -131 -136 -217 -255 -345 -207 -223 -398
-365 -659 -490 -87 -42 -188 -80 -220 -84 -5 -1 -12 -4 -15 -7 -7 -8 -127 -37
-178 -43 l-44 -6 7 29 c8 37 -10 72 -71 140 -51 56 -106 96 -148 107 -26 6
-34 31 -17 49 5 6 30 51 56 100 27 50 56 101 65 115 10 14 34 59 55 100 20 41
66 125 101 185 63 110 114 228 114 265 0 26 4 25 48 -5 57 -39 153 -65 236
-64 85 2 139 12 115 23 -9 4 -29 5 -44 3 -74 -10 -206 38 -274 98 -78 70 -94
199 -30 245 21 15 53 95 75 189 14 58 27 111 29 118 3 9 13 9 41 0 l36 -11 -5
-76 c-5 -83 -32 -165 -77 -232 -39 -57 -38 -86 3 -125 58 -56 92 -67 202 -66
114 0 197 19 289 65 148 75 288 230 347 387 23 62 59 234 59 284 l0 32 35 -53
c20 -28 41 -64 47 -79 12 -27 13 -27 16 22 8 112 -26 185 -98 215 -43 18 -135
8 -197 -21 -71 -32 -71 -52 0 -33 28 7 68 14 87 14 l34 0 -44 -46 c-214 -219
-534 -272 -796 -133 -121 65 -137 78 -130 107 3 15 9 65 12 110 l7 84 26 -6
c14 -3 41 -9 58 -12 87 -17 198 59 249 168 27 59 29 70 29 193 0 102 -4 143
-19 189 -30 91 -72 146 -136 179 -48 24 -64 27 -131 25 l-77 -3 -6 64 c-6 73
-1 84 53 107 26 11 58 15 114 12 42 -3 77 -2 77 1 -1 12 -80 61 -107 67 -26 4
-86 -4 -139 -21 -19 -6 -23 0 -38 61 -48 192 -152 402 -240 486 -51 50 -113
88 -179 112 -34 12 -63 27 -64 33 -1 5 18 32 44 59 49 53 74 96 93 161 14 47
7 45 105 21z m1998 -13 c-3 -9 -8 -14 -10 -11 -3 3 -2 9 2 15 9 16 15 13 8 -4z
m-7125 -30 c-3 -3 -9 2 -12 12 -6 14 -5 15 5 6 7 -7 10 -15 7 -18z m983 -46
c56 -20 188 -96 236 -135 15 -13 33 -27 38 -32 6 -4 35 -23 65 -42 l55 -35
196 -1 c230 -1 277 -12 333 -74 32 -36 76 -144 63 -156 -5 -6 -10 8 -21 59 -4
15 -11 25 -16 22 -5 -3 -11 -1 -15 5 -3 5 -15 10 -26 10 -11 0 -23 8 -26 17
-6 15 -7 15 -14 -3 -6 -16 -8 -15 -8 7 -1 33 -12 42 -79 64 -63 20 -163 14
-251 -16 -60 -21 -91 -24 -91 -9 0 6 -25 10 -55 10 -71 0 -174 50 -227 110
-21 23 -38 39 -38 36 0 -3 -15 9 -32 25 -77 71 -191 129 -253 129 -13 0 -29 8
-34 18 -6 9 -11 12 -11 5 0 -6 -9 -11 -20 -10 -20 1 -25 9 -14 20 13 13 194
-5 245 -24z m3768 -8 c-13 -11 -26 -18 -28 -15 -2 2 7 12 20 23 13 11 26 18
28 15 2 -2 -7 -12 -20 -23z m2681 -21 c0 -40 -3 -48 -15 -44 -8 4 -15 14 -15
23 0 14 2 14 10 1 7 -11 10 -4 10 28 0 23 2 42 5 42 3 0 5 -22 5 -50z m-4843
8 c-3 -7 -5 -2 -5 12 0 14 2 19 5 13 2 -7 2 -19 0 -25z m-406 -25 c-15 -28
-40 -59 -41 -50 0 8 41 67 47 67 2 0 -1 -8 -6 -17z m406 -15 c-3 -8 -6 -5 -6
6 -1 11 2 17 5 13 3 -3 4 -12 1 -19z m4794 -41 c-10 -9 -11 -8 -5 6 3 10 9 15
12 12 3 -3 0 -11 -7 -18z m-4794 -24 c-3 -10 -5 -4 -5 12 0 17 2 24 5 18 2 -7
2 -21 0 -30z m2280 -35 c-3 -8 -6 -5 -6 6 -1 11 2 17 5 13 3 -3 4 -12 1 -19z
m-4051 -14 c167 -56 237 -251 134 -376 -70 -85 -215 -122 -304 -77 -26 12 -62
38 -81 57 -121 121 -64 338 104 398 49 18 88 17 147 -2z m1724 -64 c-6 -11
-13 -20 -16 -20 -2 0 0 9 6 20 6 11 13 20 16 20 2 0 0 -9 -6 -20z m-500 -114
c0 -12 -5 -7 -19 24 -11 24 -11 24 3 6 9 -11 16 -24 16 -30z m17 -78 c-3 -8
-6 -5 -6 6 -1 11 2 17 5 13 3 -3 4 -12 1 -19z m0 -95 c-3 -10 -5 -4 -5 12 0
17 2 24 5 18 2 -7 2 -21 0 -30z m-10 -55 c-3 -8 -6 -5 -6 6 -1 11 2 17 5 13 3
-3 4 -12 1 -19z m826 -53 c9 -19 34 -45 55 -58 44 -28 126 -67 141 -67 22 0
10 -28 -13 -34 -61 -15 -157 -132 -191 -231 -5 -16 -11 -8 -30 38 -30 75 -85
141 -154 185 l-56 36 30 8 c64 17 130 63 160 110 17 26 33 47 36 47 3 1 13
-15 22 -34z m4134 3 c-3 -7 -5 -2 -5 12 0 14 2 19 5 13 2 -7 2 -19 0 -25z
m-2460 -30 c-3 -7 -5 -2 -5 12 0 14 2 19 5 13 2 -7 2 -19 0 -25z m-2410 -40
c-3 -7 -5 -2 -5 12 0 14 2 19 5 13 2 -7 2 -19 0 -25z m-190 -30 c-3 -7 -5 -2
-5 12 0 14 2 19 5 13 2 -7 2 -19 0 -25z m-90 -68 c-3 -41 -16 -92 -30 -123
l-23 -52 -17 68 c-10 38 -29 91 -42 119 -14 29 -25 52 -25 52 0 1 32 2 72 4
l71 3 -6 -71z m275 -25 c3 -45 2 -67 -2 -50 -8 30 -13 142 -6 134 2 -2 6 -40
8 -84z m-630 5 c-3 -50 -32 -164 -52 -199 -5 -9 -10 4 -15 35 -4 27 -20 82
-37 122 -17 40 -29 75 -27 77 10 9 77 23 104 22 30 -2 30 -2 27 -57z m166 -15
c-3 -3 -9 2 -12 12 -6 14 -5 15 5 6 7 -7 10 -15 7 -18z m-65 -25 c-3 -12 -8
-19 -11 -16 -5 6 5 36 12 36 2 0 2 -9 -1 -20z m-1400 -92 c10 -10 14 -18 9
-18 -5 0 -17 9 -27 20 -10 12 -24 19 -31 16 -7 -3 -16 4 -19 15 -4 10 -10 19
-15 19 -4 0 -11 7 -14 16 -6 15 60 -31 97 -68z m1496 37 c0 -5 -4 -3 -9 5 -5
8 -9 22 -9 30 0 16 17 -16 18 -35z m2804 30 c-3 -9 -8 -14 -10 -11 -3 3 -2 9
2 15 9 16 15 13 8 -4z m-2942 -92 c-12 -20 -14 -14 -5 12 4 9 9 14 11 11 3 -2
0 -13 -6 -23z m-1190 -150 c105 -130 199 -228 274 -288 28 -22 52 -42 55 -45
3 -3 28 -24 55 -45 28 -22 52 -43 55 -46 28 -33 237 -117 348 -140 48 -10 53
-13 36 -22 -10 -6 -67 -13 -125 -15 -117 -5 -219 16 -219 45 0 9 -6 13 -12 10
-7 -2 -24 9 -38 24 -13 16 -30 29 -37 29 -17 0 -16 10 2 34 12 16 15 17 15 4
0 -9 7 -19 16 -22 14 -5 15 -4 5 8 -7 8 -10 19 -7 24 3 5 -3 17 -14 27 -21 19
-23 16 -21 -22 3 -26 -18 -41 -30 -22 -13 21 -11 33 4 21 10 -9 13 -4 14 24 1
20 -1 33 -4 31 -2 -3 -16 6 -29 18 -15 14 -32 21 -41 18 -9 -4 -14 -2 -10 3 3
6 2 16 -4 24 -7 12 -9 11 -9 -5 0 -16 -2 -17 -9 -5 -6 8 -8 17 -5 21 2 4 -4
13 -13 20 -13 11 -15 11 -9 1 8 -14 -10 -42 -27 -42 -7 0 -7 4 1 12 15 15 16
48 1 48 -6 0 -9 -7 -6 -15 4 -8 1 -17 -6 -21 -7 -4 -9 -4 -5 1 4 4 3 17 -3 28
-8 14 -8 18 0 13 13 -8 14 -4 5 18 -8 21 -24 20 -24 -1 0 -22 -9 -12 -13 15
-3 23 -41 65 -50 56 -3 -3 -4 1 -3 9 1 16 -124 175 -206 261 -27 28 -48 54
-48 58 0 16 49 -36 141 -149z m4020 74 c-10 -9 -11 -8 -5 6 3 10 9 15 12 12 3
-3 0 -11 -7 -18z m-2103 -112 c-3 -3 -9 2 -12 12 -6 14 -5 15 5 6 7 -7 10 -15
7 -18z m2319 -7 c-3 -7 -5 -2 -5 12 0 14 2 19 5 13 2 -7 2 -19 0 -25z m980 -7
c80 -42 136 -216 112 -348 -12 -67 -49 -139 -90 -179 -57 -54 -173 -38 -228
32 -59 75 -88 260 -58 364 37 127 160 187 264 131z m-870 -33 c-3 -8 -6 -5 -6
6 -1 11 2 17 5 13 3 -3 4 -12 1 -19z m-4318 -52 c-3 -3 -11 5 -18 17 -13 21
-12 21 5 5 10 -10 16 -20 13 -22z m1997 -136 l2 -85 -7 85 c-5 47 -16 102 -25
124 -23 55 -18 60 7 6 15 -32 21 -69 23 -130z m2311 103 c-3 -10 -5 -2 -5 17
0 19 2 27 5 18 2 -10 2 -26 0 -35z m-120 -5 c-3 -8 -6 -5 -6 6 -1 11 2 17 5
13 3 -3 4 -12 1 -19z m137 -53 c5 -22 4 -26 -4 -15 -5 8 -10 24 -10 34 0 26 6
18 14 -19z m-4186 -60 c-3 -3 -9 2 -12 12 -6 14 -5 15 5 6 7 -7 10 -15 7 -18z
m113 -77 c5 1 9 -4 9 -10 0 -9 4 -8 11 2 9 12 10 12 5 -3 -3 -11 -3 -24 1 -30
4 -7 10 -2 14 13 l7 25 1 -27 c1 -16 -2 -28 -6 -28 -14 1 -83 70 -83 83 0 6 8
3 16 -8 8 -11 20 -19 25 -17z m1736 -45 c-3 -10 -5 -2 -5 17 0 19 2 27 5 18 2
-10 2 -26 0 -35z m-370 5 c-3 -7 -5 -2 -5 12 0 14 2 19 5 13 2 -7 2 -19 0 -25z
m-17 -56 c0 -5 -7 -17 -15 -28 -14 -18 -14 -17 -4 9 12 27 19 34 19 19z m377
-59 c-2 -16 -4 -5 -4 22 0 28 2 40 4 28 2 -13 2 -35 0 -50z m2532 -18 c0 -5
-6 1 -14 15 -8 14 -14 30 -14 35 0 6 6 -1 14 -15 8 -14 14 -29 14 -35z m-2532
-82 c-2 -16 -4 -5 -4 22 0 28 2 40 4 28 2 -13 2 -35 0 -50z m2540 25 c-3 -7
-5 -2 -5 12 0 14 2 19 5 13 2 -7 2 -19 0 -25z m-5263 5 c4 -5 11 -8 14 -9 4 0
18 -6 32 -12 17 -7 20 -11 8 -11 -9 -1 -20 4 -23 9 -4 6 -9 8 -13 6 -4 -2 -16
2 -27 10 -10 8 -14 14 -9 14 6 0 14 -3 18 -7z m5143 -15 c-3 -8 -6 -5 -6 6 -1
11 2 17 5 13 3 -3 4 -12 1 -19z m-3431 -4 c-4 -9 -1 -23 5 -30 7 -9 8 -14 1
-14 -5 0 -13 7 -16 16 -5 14 -8 14 -28 0 -35 -24 -44 -19 -12 6 16 13 31 26
32 30 7 16 24 8 18 -8z m104 -30 c0 -2 -7 -4 -15 -4 -8 0 -15 4 -15 10 0 5 7
7 15 4 8 -4 15 -8 15 -10z m619 -30 c12 -19 21 -42 21 -50 0 -34 129 -234 151
-234 3 0 33 -32 65 -71 33 -39 69 -83 81 -97 31 -36 29 -48 -4 -27 -170 108
-313 285 -361 445 -14 48 -12 66 9 67 11 1 26 -13 38 -33z m2836 -21 c-4 -32
-12 -65 -17 -73 -7 -11 -8 -8 -4 10 2 14 8 46 11 73 10 67 18 59 10 -10z
m-6568 -20 c-2 -16 -4 -5 -4 22 0 28 2 40 4 28 2 -13 2 -35 0 -50z m95 -47
c13 -26 10 -23 -41 39 -23 27 -41 54 -41 58 0 11 67 -69 82 -97z m1525 48 c-3
-3 -12 -4 -19 -1 -8 3 -5 6 6 6 11 1 17 -2 13 -5z m53 -16 c0 -4 -9 -8 -20 -8
-11 0 -20 4 -20 9 0 6 9 9 20 8 11 -1 20 -5 20 -9z m1300 -13 c11 -13 10 -14
-4 -9 -9 3 -16 10 -16 15 0 13 6 11 20 -6z m-2973 -52 c-3 -10 -5 -2 -5 17 0
19 2 27 5 18 2 -10 2 -26 0 -35z m1778 37 c3 -5 1 -10 -4 -10 -6 0 -11 5 -11
10 0 6 2 10 4 10 3 0 8 -4 11 -10z m2297 -35 c9 -20 9 -20 -6 -1 -9 11 -16 27
-15 35 0 14 1 14 6 1 3 -8 10 -24 15 -35z m2454 -32 c-8 -15 -15 -25 -16 -21
0 12 23 58 27 54 3 -2 -2 -17 -11 -33z m-4619 21 c-3 -3 -12 -4 -19 -1 -8 3
-5 6 6 6 11 1 17 -2 13 -5z m1173 -19 c13 -14 21 -25 18 -25 -2 0 -15 11 -28
25 -13 14 -21 25 -18 25 2 0 15 -11 28 -25z m-1353 -7 c-3 -8 -6 -5 -6 6 -1
11 2 17 5 13 3 -3 4 -12 1 -19z m273 -13 c11 -13 10 -14 -4 -9 -9 3 -16 10
-16 15 0 13 6 11 20 -6z m51 -23 c-7 -2 -18 1 -23 6 -8 8 -4 9 13 5 13 -4 18
-8 10 -11z m2969 -12 c0 -11 6 -20 14 -20 32 0 35 -75 6 -134 -27 -56 -76
-110 -91 -100 -8 5 -9 3 -4 -6 6 -10 4 -12 -9 -7 -11 4 -15 3 -10 -4 9 -15
-16 -30 -38 -23 -14 4 -16 1 -11 -12 4 -11 2 -15 -7 -12 -26 8 -20 25 45 127
52 83 66 113 71 157 5 36 11 54 20 54 8 0 14 -9 14 -20z m-5023 -132 c-3 -8
-6 -5 -6 6 -1 11 2 17 5 13 3 -3 4 -12 1 -19z m190 -10 c-3 -8 -6 -5 -6 6 -1
11 2 17 5 13 3 -3 4 -12 1 -19z m3147 -178 l7 -25 -14 25 c-8 14 -17 36 -21
50 l-7 25 14 -25 c8 -14 17 -36 21 -50z m-3322 -25 c9 -20 9 -20 -6 -1 -9 11
-16 27 -15 35 0 14 1 14 6 1 3 -8 10 -24 15 -35z m3347 -45 c0 -10 -3 -8 -9 5
-12 27 -12 43 0 25 5 -8 9 -22 9 -30z m65 -18 c-4 -12 -10 -19 -15 -16 -5 3
-5 13 1 23 5 10 8 21 6 23 -1 3 1 3 5 -1 5 -3 6 -16 3 -29z m-42 -16 c7 4 8 2
4 -5 -4 -6 0 -47 9 -91 9 -45 14 -86 12 -93 -2 -7 -7 6 -11 28 -4 22 -14 68
-22 102 -14 61 -17 90 -7 65 2 -6 10 -9 15 -6z m2858 -60 c0 -2 -8 -10 -17
-17 -16 -13 -17 -12 -4 4 13 16 21 21 21 13z m-6192 -131 c93 -116 236 -189
412 -210 183 -22 280 -86 394 -259 75 -113 122 -167 182 -208 19 -13 34 -26
34 -29 0 -3 -21 -27 -47 -54 -131 -133 -315 -133 -505 1 -43 31 -83 61 -90 68
-51 50 -268 133 -375 143 -61 6 -63 7 -68 37 -5 26 -4 148 4 529 1 26 2 47 4
47 2 0 27 -29 55 -65z m3392 -59 c0 -6 5 -4 11 4 8 12 9 10 4 -7 -4 -15 1 -29
15 -43 12 -12 20 -26 18 -32 -5 -15 -44 40 -64 89 -13 34 -13 36 1 19 8 -11
15 -25 15 -30z m2477 -23 c-3 -10 -5 -2 -5 17 0 19 2 27 5 18 2 -10 2 -26 0
-35z m622 17 c9 12 11 12 17 -3 3 -9 12 -17 19 -17 21 0 32 -50 22 -98 -6 -33
-12 -42 -24 -38 -10 4 -17 -1 -21 -16 -5 -21 -6 -21 -13 -2 -6 15 -8 16 -8 2
-1 -9 -11 -18 -23 -20 -60 -10 -108 55 -88 116 17 53 83 99 103 71 4 -6 10 -5
16 5z m-3049 -20 c0 -5 -2 -10 -4 -10 -3 0 -8 5 -11 10 -3 6 -1 10 4 10 6 0
11 -4 11 -10z m2607 -72 c-2 -18 -4 -6 -4 27 0 33 2 48 4 33 2 -15 2 -42 0
-60z m-5077 28 c0 -12 -5 -7 -19 24 -11 24 -11 24 3 6 9 -11 16 -24 16 -30z
m1762 13 c40 -21 134 -123 132 -145 -1 -7 3 -12 9 -11 6 1 37 -50 69 -113 32
-63 49 -104 38 -90 -10 14 -31 49 -46 78 -26 51 -42 70 -30 35 6 -17 5 -17 -7
-1 -8 10 -17 15 -20 11 -4 -3 -9 2 -13 11 -6 16 -8 16 -25 0 -11 -9 -19 -12
-19 -6 0 6 5 12 12 14 8 3 8 9 0 24 -10 18 -11 17 -21 -8 -6 -16 -13 -28 -15
-28 -3 0 -3 6 0 13 3 8 -2 14 -11 14 -8 0 -15 -7 -16 -16 0 -12 -2 -13 -6 -2
-5 11 -7 11 -14 0 -6 -10 -9 -8 -9 9 0 12 5 22 10 22 6 0 10 6 10 14 0 15 -24
16 -37 1 -4 -4 -2 -5 5 -1 14 8 17 -10 3 -19 -12 -7 -25 31 -15 46 4 8 3 9 -4
5 -7 -4 -13 -1 -14 6 0 7 -4 -7 -8 -32 -7 -44 -7 -43 -9 20 -1 36 -7 91 -15
123 -13 57 -13 57 8 51 11 -4 38 -15 58 -25z m3135 -36 c-3 -10 -5 -2 -5 17 0
19 2 27 5 18 2 -10 2 -26 0 -35z m-2399 -19 c5 -9 13 -15 18 -14 5 1 10 -4 12
-10 3 -9 -1 -9 -15 -2 -26 14 -49 42 -35 42 6 0 15 -7 20 -16z m197 -4 c3 -5
1 -10 -4 -10 -6 0 -11 5 -11 10 0 6 2 10 4 10 3 0 8 -4 11 -10z m60 -9 c-6
-11 -45 -21 -45 -12 0 12 8 17 30 18 11 1 18 -2 15 -6z m1040 -106 c191 -25
297 -49 498 -116 595 -197 999 -636 1094 -1190 23 -136 23 -432 0 -569 -22
-129 -50 -235 -85 -322 -142 -353 -321 -588 -761 -997 -394 -365 -528 -548
-596 -807 -15 -57 -24 -124 -46 -332 -11 -102 -14 -115 -36 -129 -21 -14 -75
-15 -481 -10 -251 3 -467 9 -479 13 -40 11 -47 59 -39 277 14 434 76 653 263
937 110 167 182 251 413 480 347 347 475 527 558 780 52 162 68 385 38 542
-55 284 -221 476 -481 558 -101 32 -346 40 -448 15 -119 -29 -250 -99 -335
-179 -43 -40 -112 -136 -144 -201 -74 -149 -98 -296 -98 -612 0 -135 -4 -243
-10 -259 l-11 -27 -162 7 c-89 4 -191 9 -227 12 -36 2 -202 8 -369 13 -257 8
-306 12 -320 26 -13 13 -17 47 -19 203 -8 483 94 808 370 1173 100 132 183
217 328 336 232 189 579 326 945 373 50 7 97 13 105 15 52 10 432 3 535 -10z
m-2096 -142 c-7 -32 -12 -65 -10 -73 1 -12 0 -12 -7 -2 -5 8 -3 44 7 90 8 42
17 69 19 60 2 -10 -2 -44 -9 -75z m142 40 c-9 -16 -10 -14 -11 12 0 21 3 26
11 18 8 -8 8 -16 0 -30z m45 7 c1 -16 -3 -27 -7 -24 -11 6 -12 54 -1 54 4 0 7
-13 8 -30z m-76 -11 c0 -5 -4 -7 -10 -4 -6 3 -7 -1 -4 -9 3 -9 1 -16 -5 -16
-12 0 -15 23 -4 33 10 10 23 8 23 -4z m133 -18 c3 -11 -1 -22 -8 -24 -8 -4
-10 3 -7 19 5 29 8 30 15 5z m-200 -32 c4 -16 3 -19 -5 -11 -9 9 -15 9 -25 0
-11 -8 -12 -7 -7 6 3 9 10 16 16 16 5 0 6 5 2 12 -4 6 -3 8 3 5 6 -4 13 -16
16 -28z m308 -102 c-10 -9 -11 -8 -5 6 3 10 9 15 12 12 3 -3 0 -11 -7 -18z
m-1554 -53 c-3 -3 -12 -4 -19 -1 -8 3 -5 6 6 6 11 1 17 -2 13 -5z m1418 -74
c-3 -5 -11 -10 -16 -10 -6 0 -7 5 -4 10 3 6 11 10 16 10 6 0 7 -4 4 -10z
m6143 -703 l-3 -262 -47 -65 c-93 -130 -166 -180 -278 -194 -62 -7 -82 -2
-230 49 -121 42 -184 44 -261 7 -60 -29 -90 -84 -129 -235 -46 -182 -82 -233
-179 -257 -40 -9 -64 -9 -128 4 -132 26 -168 28 -229 16 -83 -18 -121 -38
-187 -100 -71 -66 -125 -147 -203 -300 -45 -90 -72 -129 -124 -181 -122 -123
-250 -168 -610 -213 -19 -2 -55 -11 -80 -20 -24 -8 -46 -13 -48 -11 -3 2 13
30 35 62 29 43 52 65 89 83 61 31 116 53 169 70 138 43 192 67 246 107 108 81
136 123 263 395 47 99 127 188 204 224 60 29 114 45 225 69 136 29 258 105
321 200 22 33 60 119 91 206 60 172 86 211 168 253 76 39 163 39 256 1 147
-60 238 -55 334 21 32 24 78 73 102 107 25 34 59 79 76 100 32 39 137 127 152
127 4 0 7 -118 5 -263z m-6657 -124 c-12 -20 -14 -14 -5 12 4 9 9 14 11 11 3
-2 0 -13 -6 -23z m-24 -75 c-3 -8 -6 -5 -6 6 -1 11 2 17 5 13 3 -3 4 -12 1
-19z m1844 -285 c13 -16 12 -17 -3 -4 -10 7 -18 15 -18 17 0 8 8 3 21 -13z
m-4174 -107 c41 -26 76 -75 144 -199 110 -203 161 -224 417 -171 124 26 127
26 181 9 85 -27 126 -58 256 -190 130 -132 112 -122 264 -151 35 -7 20 -15
-38 -19 -28 -3 -66 -11 -83 -18 -18 -8 -39 -12 -46 -10 -8 3 -10 -1 -5 -14 11
-33 36 -54 130 -109 86 -51 149 -110 141 -134 -2 -6 -12 -5 -28 3 -14 7 -29
14 -35 16 -5 1 -21 5 -35 8 -35 8 -150 68 -184 95 -15 13 -58 48 -95 78 -164
137 -225 170 -321 175 -59 4 -77 0 -180 -38 -30 -11 -84 -30 -120 -43 -92 -34
-145 -31 -236 10 -53 25 -93 53 -143 103 l-69 68 2 255 c4 338 1 313 29 305
12 -4 37 -17 54 -29z m4280 -168 c-2 -13 -4 -5 -4 17 -1 22 1 32 4 23 2 -10 2
-28 0 -40z m0 -145 c-3 -10 -5 -2 -5 17 0 19 2 27 5 18 2 -10 2 -26 0 -35z
m-226 -168 l-11 -40 5 40 c3 22 6 63 7 90 l2 50 3 -50 c2 -27 -1 -68 -6 -90z
m206 33 c-3 -7 -5 -2 -5 12 0 14 2 19 5 13 2 -7 2 -19 0 -25z m4112 -60 c0
-33 -2 -38 -9 -23 -8 19 -9 19 -9 1 -1 -11 -4 -17 -7 -13 -5 5 16 77 23 77 2
0 3 -19 2 -42z m-4143 -39 c-15 -34 -15 -34 -9 -4 7 35 13 48 20 42 2 -3 -3
-20 -11 -38z m-189 -21 c-3 -7 -5 -2 -5 12 0 14 2 19 5 13 2 -7 2 -19 0 -25z
m-2507 -75 c37 -70 93 -131 144 -158 37 -19 38 -19 15 -29 -38 -15 -143 -127
-174 -185 l-29 -53 -16 49 c-9 27 -26 65 -38 85 -27 44 -101 113 -131 123 -19
6 -14 11 38 35 51 25 67 39 101 91 21 33 42 70 45 80 4 10 8 19 10 19 2 0 18
-26 35 -57z m2497 35 c-3 -8 -6 -5 -6 6 -1 11 2 17 5 13 3 -3 4 -12 1 -19z
m-10 -60 c-3 -8 -6 -5 -6 6 -1 11 2 17 5 13 3 -3 4 -12 1 -19z m3523 -88 c0
-5 -5 -10 -11 -10 -5 0 -7 5 -4 10 3 6 8 10 11 10 2 0 4 -4 4 -10z m-20 -46
c0 -16 -16 -19 -25 -4 -8 13 4 32 16 25 5 -4 9 -13 9 -21z m-67 -40 c-7 -19
-10 -18 -16 5 -3 13 -1 18 9 14 7 -2 10 -11 7 -19z m785 -29 c-3 -3 -9 2 -12
12 -6 14 -5 15 5 6 7 -7 10 -15 7 -18z m-5773 -465 c-3 -5 -12 -7 -20 -3 -21
7 -19 13 6 13 11 0 18 -4 14 -10z m-418 -56 c-3 -3 -12 -4 -19 -1 -8 3 -5 6 6
6 11 1 17 -2 13 -5z m653 -84 c6 -11 8 -20 6 -20 -3 0 -10 9 -16 20 -6 11 -8
20 -6 20 3 0 10 -9 16 -20z m-1067 -47 c-7 -2 -19 -2 -25 0 -7 3 -2 5 12 5 14
0 19 -2 13 -5z m1167 -97 c0 -6 -7 -1 -15 10 -8 10 -15 23 -15 28 0 6 7 1 15
-10 8 -10 15 -23 15 -28z m24 -32 c3 -8 2 -12 -4 -9 -6 3 -10 10 -10 16 0 14
7 11 14 -7z m311 -234 c3 -5 -1 -10 -9 -10 -9 0 -16 5 -16 10 0 6 4 10 9 10 6
0 13 -4 16 -10z m-2955 -150 c0 -5 -9 -14 -19 -19 -14 -8 -20 -7 -25 5 -3 8
-2 13 2 10 4 -2 14 -1 22 5 19 11 20 11 20 -1z m83 4 c6 -7 -19 -64 -29 -64
-2 0 0 9 6 19 14 28 12 41 -5 35 -8 -4 -15 -1 -15 5 0 12 32 15 43 5z m47 -6
c0 -4 -7 -8 -15 -8 -8 0 -15 4 -15 8 0 5 7 9 15 9 8 0 15 -4 15 -9z m-209 -17
c-8 -5 -20 -7 -27 -4 -6 2 -15 0 -19 -6 -3 -6 -14 -11 -23 -11 -15 1 -15 2 2
15 11 8 34 15 50 15 22 0 27 -3 17 -9z m129 -11 c0 -5 -4 -10 -10 -10 -5 0
-10 5 -10 10 0 6 5 10 10 10 6 0 10 -4 10 -10z m51 -13 c-10 -9 -11 -8 -5 6 3
10 9 15 12 12 3 -3 0 -11 -7 -18z m117 5 c2 -7 -2 -10 -12 -6 -9 3 -16 11 -16
16 0 13 23 5 28 -10z m-67 -9 c13 -16 12 -17 -3 -4 -16 12 -18 11 -19 -5 -1
-11 -1 -23 0 -27 1 -5 -3 -6 -8 -3 -5 4 -12 -8 -14 -26 -3 -26 -4 -25 -4 9 1
23 4 40 8 38 4 -3 9 4 12 15 6 25 11 25 28 3z m3270 -6 c-10 -9 -11 -8 -5 6 3
10 9 15 12 12 3 -3 0 -11 -7 -18z m-3611 2 c0 -5 -4 -7 -10 -4 -5 3 -10 1 -10
-4 0 -6 -7 -11 -15 -11 -21 0 -19 18 3 23 29 8 32 7 32 -4z m450 -10 c0 -5 5
-9 10 -9 6 0 20 -9 32 -19 l21 -20 -22 2 c-11 1 -21 6 -21 13 0 6 -11 16 -24
22 -21 9 -23 8 -20 -15 2 -18 -1 -22 -8 -15 -16 16 -1 63 17 56 8 -4 15 -10
15 -15z m8557 -41 c-2 -13 -4 -5 -4 17 -1 22 1 32 4 23 2 -10 2 -28 0 -40z
m-9070 -40 c-2 -18 -4 -6 -4 27 0 33 2 48 4 33 2 -15 2 -42 0 -60z m460 68 c4
-4 1 -6 -7 -4 -8 2 -14 -3 -12 -10 1 -8 -2 -11 -7 -8 -5 4 -12 0 -14 -6 -3 -7
-6 -4 -6 8 -1 11 2 23 5 26 7 8 31 4 41 -6z m26 -50 c4 4 7 1 7 -7 0 -11 2
-11 10 1 9 13 10 13 10 0 0 -13 1 -13 10 0 8 13 10 12 10 -3 0 -13 -6 -16 -25
-13 -23 4 -25 2 -21 -17 3 -12 3 -16 0 -9 -3 6 -11 9 -16 5 -7 -4 -9 2 -6 15
4 12 2 25 -3 28 -5 3 -9 13 -9 22 1 13 4 12 13 -6 7 -12 16 -19 20 -16z m-156
2 c-3 -8 -6 -5 -6 6 -1 11 2 17 5 13 3 -3 4 -12 1 -19z m70 0 c-3 -8 -6 -5 -6
6 -1 11 2 17 5 13 3 -3 4 -12 1 -19z m-136 -11 c-1 -12 -15 -9 -19 4 -3 6 1
10 8 8 6 -3 11 -8 11 -12z m349 -16 c0 -14 -2 -14 -10 -1 -7 12 -11 10 -19
-10 -6 -16 -10 -19 -10 -8 -1 28 10 47 25 41 8 -3 14 -13 14 -22z m-311 -13
c10 -30 9 -31 -4 -14 -8 11 -15 26 -15 33 0 22 8 14 19 -19z m21 7 c0 -8 -2
-15 -4 -15 -2 0 -6 7 -10 15 -3 8 -1 15 4 15 6 0 10 -7 10 -15z m240 -23 c0
-15 -2 -15 -10 -2 -13 20 -13 33 0 25 6 -3 10 -14 10 -23z m-93 -12 c20 0 20
-36 2 -59 -11 -13 -16 -28 -13 -33 4 -6 10 -5 15 3 12 20 49 20 41 1 -4 -11
-7 -12 -10 -3 -3 8 -8 7 -17 -5 -12 -17 -14 -17 -37 -2 -25 17 -88 32 -120 30
-10 0 -18 3 -18 8 0 5 20 9 45 8 25 0 45 -5 45 -10 0 -5 4 -7 9 -3 5 3 8 20 7
38 -2 17 -1 24 1 15 2 -10 9 -18 14 -18 6 0 8 -9 4 -19 -9 -29 10 -34 23 -6 9
19 9 24 0 22 -6 -1 -15 14 -19 33 -6 30 -6 32 5 18 7 -10 18 -18 23 -18z m156
9 c-4 -16 -8 -17 -14 -7 -7 11 -9 10 -9 -1 0 -8 -3 -11 -7 -7 -5 4 1 14 11 22
25 18 25 18 19 -7z m-237 -9 c16 -23 25 -52 14 -45 -6 3 -10 12 -10 19 0 8 -9
16 -20 19 -11 3 -20 10 -20 16 0 15 23 9 36 -9z m133 -36 c1 -7 -6 -14 -14
-18 -12 -4 -13 -2 -5 13 7 14 6 21 -2 23 -7 3 -8 9 -3 18 7 11 10 10 16 -6 4
-10 8 -24 8 -30z m30 16 c5 -17 6 -28 1 -25 -5 3 -10 -5 -13 -17 -2 -13 -3 -2
-3 24 1 27 2 48 3 48 0 0 6 -14 12 -30z m-552 -27 c-3 -10 -5 -2 -5 17 0 19 2
27 5 18 2 -10 2 -26 0 -35z m670 25 c-3 -8 -6 -5 -6 6 -1 11 2 17 5 13 3 -3 4
-12 1 -19z m-360 -10 c-3 -8 -6 -5 -6 6 -1 11 2 17 5 13 3 -3 4 -12 1 -19z
m283 -3 c0 4 3 6 6 2 4 -3 -1 -13 -10 -22 -9 -9 -16 -13 -16 -8 0 4 -3 19 -6
33 -5 24 -5 24 10 6 9 -11 16 -16 16 -11z m130 -20 c11 -13 10 -14 -4 -9 -9 3
-16 10 -16 15 0 13 6 11 20 -6z m-429 -8 c-7 -7 -14 -8 -21 -1 -6 6 -2 10 12
11 16 2 18 -1 9 -10z m-51 -17 c-8 -5 -17 -7 -19 -4 -3 3 1 9 9 14 8 5 17 7
19 4 3 -3 -1 -9 -9 -14z m-243 -22 c-3 -7 -5 -2 -5 12 0 14 2 19 5 13 2 -7 2
-19 0 -25z m541 -45 c-8 -10 -13 -9 -24 1 -7 8 -19 16 -26 18 -6 2 -8 10 -4
17 6 9 12 9 26 -4 18 -16 18 -16 14 7 -5 23 -5 23 10 -2 10 -17 11 -29 4 -37z
m821 41 c30 -6 44 -24 18 -24 -8 0 -40 -20 -73 -44 -32 -25 -61 -43 -63 -40
-3 2 3 10 13 17 21 16 12 46 -14 44 -17 -1 -18 -3 -5 -17 13 -15 13 -17 0 -17
-8 0 -15 5 -15 11 0 5 -6 1 -14 -10 -10 -13 -14 -14 -13 -4 2 8 6 20 10 27 4
6 4 18 1 27 -10 26 83 44 155 30z m-769 -26 c0 -4 -4 -8 -9 -8 -6 0 -12 4 -15
8 -3 5 1 9 9 9 8 0 15 -4 15 -9z m17 -20 c-3 -7 -5 -2 -5 12 0 14 2 19 5 13 2
-7 2 -19 0 -25z m211 1 c-3 -8 -7 -3 -11 10 -4 17 -3 21 5 13 5 -5 8 -16 6
-23z m-821 -1 c-3 -8 -6 -5 -6 6 -1 11 2 17 5 13 3 -3 4 -12 1 -19z m133 7 c0
-1 -6 -7 -13 -13 -10 -8 -13 -6 -13 7 0 11 6 17 13 14 7 -3 13 -6 13 -8z
m1061 -10 c15 10 10 -1 -6 -15 -13 -11 -15 -8 -14 16 1 17 3 22 6 11 2 -9 9
-15 14 -12z m-631 -5 c0 -5 -5 -10 -11 -10 -5 0 -7 5 -4 10 3 6 8 10 11 10 2
0 4 -4 4 -10z m307 4 c-3 -3 -12 -4 -19 -1 -8 3 -5 6 6 6 11 1 17 -2 13 -5z
m250 -18 c-3 -7 0 -20 6 -27 10 -11 9 -11 -5 0 -13 10 -18 10 -18 2 0 -7 -5
-9 -12 -5 -9 6 -9 9 0 12 7 2 12 10 12 18 0 8 5 14 11 14 6 0 9 -6 6 -14z
m-67 -6 c-8 -5 -19 -10 -25 -10 -5 0 -3 5 5 10 8 5 20 10 25 10 6 0 3 -5 -5
-10z m114 -5 c3 -8 1 -15 -4 -15 -6 0 -10 7 -10 15 0 8 2 15 4 15 2 0 6 -7 10
-15z m-1074 1 c0 -2 -8 -10 -17 -17 -16 -13 -17 -12 -4 4 13 16 21 21 21 13z
m1140 -31 c0 -9 -6 -12 -16 -8 -13 5 -13 7 -2 14 17 11 18 11 18 -6z m-586
-35 c10 -13 9 -13 -6 -1 -10 7 -18 21 -17 30 0 13 1 14 6 1 3 -8 11 -22 17
-30z m565 6 c-35 -23 -59 -34 -59 -27 0 6 10 16 22 22 14 8 18 14 10 17 -6 2
-10 8 -6 13 3 5 12 2 21 -6 8 -9 14 -17 12 -19z m4088 12 c-3 -8 -6 -5 -6 6
-1 11 2 17 5 13 3 -3 4 -12 1 -19z m-1667 -78 c0 -64 -3 -72 -26 -69 -4 0 -10
-3 -13 -8 -7 -11 -118 -40 -181 -48 -43 -5 -75 -8 -238 -20 -156 -12 -279
-106 -366 -280 -84 -169 -187 -283 -280 -310 -64 -19 -211 -19 -303 0 -39 8
-111 15 -160 16 -163 2 -270 -63 -383 -230 -126 -188 -205 -228 -397 -201 -91
12 -165 -1 -246 -43 -54 -28 -143 -119 -187 -192 -106 -174 -179 -223 -355
-240 -166 -16 -257 -60 -382 -184 -34 -33 -76 -83 -94 -111 -18 -27 -34 -50
-35 -50 -2 0 -2 143 -1 317 l2 317 94 63 c51 34 110 67 130 73 58 16 126 12
193 -12 43 -15 86 -22 133 -22 98 0 148 28 258 144 117 124 161 157 237 178 8
2 58 7 110 11 106 9 145 19 240 64 51 24 91 57 187 153 102 101 133 126 180
145 69 27 209 36 298 20 33 -6 108 -14 167 -18 95 -5 115 -3 174 17 37 12 79
30 94 39 84 51 154 143 223 292 51 109 84 151 141 182 43 23 41 23 381 14 39
-1 90 0 115 2 45 4 230 47 239 56 2 3 15 5 28 5 22 0 23 -3 23 -70z m-2893 38
c-3 -8 -6 -5 -6 6 -1 11 2 17 5 13 3 -3 4 -12 1 -19z m318 -8 c3 -5 1 -10 -4
-10 -6 0 -11 5 -11 10 0 6 2 10 4 10 3 0 8 -4 11 -10z m75 -5 c0 -2 -10 -9
-22 -15 -22 -11 -22 -10 -4 4 21 17 26 19 26 11z m-57 -32 c-7 -2 -19 -2 -25
0 -7 3 -2 5 12 5 14 0 19 -2 13 -5z m-53 -7 c0 -3 -4 -8 -10 -11 -5 -3 -10 -1
-10 4 0 6 5 11 10 11 6 0 10 -2 10 -4z m7762 -10 c7 4 8 2 4 -5 -9 -13 -26 -5
-25 12 0 9 2 8 6 -1 2 -6 10 -9 15 -6z m-7864 -13 c-10 -2 -26 -2 -35 0 -10 3
-2 5 17 5 19 0 27 -2 18 -5z m662 -125 c0 -4 -4 -8 -9 -8 -6 0 -12 4 -15 8 -3
5 1 9 9 9 8 0 15 -4 15 -9z m90 -12 c0 -3 -4 -8 -10 -11 -5 -3 -10 -1 -10 4 0
6 5 11 10 11 6 0 10 -2 10 -4z m6593 -85 c63 -27 138 -108 218 -237 140 -226
264 -288 467 -235 40 10 83 26 97 35 l25 16 1 -37 c0 -21 1 -67 2 -101 l2 -64
-55 -22 c-30 -12 -92 -30 -137 -40 -77 -16 -88 -16 -160 -2 -79 17 -172 61
-208 100 -26 28 -66 93 -141 225 -33 57 -67 118 -76 134 -37 65 -121 133 -199
162 -24 9 -53 21 -64 27 -14 8 -20 8 -23 -1 -2 -6 -8 -9 -13 -5 -13 7 -11 24
2 24 6 0 22 9 36 20 35 28 162 28 226 1z m-6841 -33 c-8 -8 -9 -4 -5 13 4 13
8 18 11 10 2 -7 -1 -18 -6 -23z m-92 -48 c0 -5 -2 -10 -4 -10 -3 0 -8 5 -11
10 -3 6 -1 10 4 10 6 0 11 -4 11 -10z m2310 -50 c0 -5 -2 -10 -4 -10 -3 0 -8
5 -11 10 -3 6 -1 10 4 10 6 0 11 -4 11 -10z m3777 4 c-3 -3 -12 -4 -19 -1 -8
3 -5 6 6 6 11 1 17 -2 13 -5z m-90 -30 c-3 -3 -12 -4 -19 -1 -8 3 -5 6 6 6 11
1 17 -2 13 -5z m-596 -131 c13 -16 12 -17 -3 -4 -10 7 -18 15 -18 17 0 8 8 3
21 -13z m-6206 -17 c64 -27 85 -120 43 -183 -51 -74 -179 -18 -178 79 0 36 42
101 70 109 14 4 26 7 28 8 1 1 18 -5 37 -13z m2578 -111 c-3 -9 -8 -14 -10
-11 -3 3 -2 9 2 15 9 16 15 13 8 -4z m3307 -111 c0 -8 4 -13 9 -10 9 6 11 4
137 -144 151 -176 231 -233 376 -271 45 -12 87 -22 92 -23 6 -1 16 -4 21 -7 6
-4 22 -9 38 -13 28 -7 38 -33 13 -33 -8 0 -12 7 -10 16 3 9 0 7 -6 -4 -6 -11
-25 -27 -43 -34 -18 -7 -64 -29 -104 -48 -49 -24 -78 -33 -90 -28 -10 5 -21 9
-25 9 -3 1 -10 4 -14 9 -4 4 -17 7 -28 7 -27 0 -98 48 -91 60 3 6 0 7 -8 4
-20 -7 -132 99 -177 168 -42 64 -66 123 -105 251 -21 69 -24 91 -15 102 14 17
30 11 30 -11z m-1786 -13 c220 -64 389 -246 447 -480 27 -109 23 -281 -9 -381
-59 -181 -218 -351 -392 -420 -59 -23 -202 -50 -267 -50 -57 0 -182 26 -257
53 -128 46 -277 171 -347 292 -38 66 -76 183 -89 272 -31 226 94 500 288 630
81 55 179 91 287 107 70 10 271 -4 339 -23z m3450 3 c3 -8 2 -12 -4 -9 -6 3
-10 10 -10 16 0 14 7 11 14 -7z m-5027 -86 c-3 -7 -5 -2 -5 12 0 14 2 19 5 13
2 -7 2 -19 0 -25z m190 -50 c-3 -7 -5 -2 -5 12 0 14 2 19 5 13 2 -7 2 -19 0
-25z m-20 -110 c-3 -7 -5 -2 -5 12 0 14 2 19 5 13 2 -7 2 -19 0 -25z m-37
-145 c-11 -17 -11 -17 -6 0 3 10 6 24 7 30 0 9 2 9 5 0 3 -7 0 -20 -6 -30z
m-40 -93 c-6 -11 -13 -20 -16 -20 -2 0 0 9 6 20 6 11 13 20 16 20 2 0 0 -9 -6
-20z m4900 -21 c0 -6 -4 -7 -10 -4 -5 3 -10 11 -10 16 0 6 5 7 10 4 6 -3 10
-11 10 -16z m-4960 -73 c0 -2 -8 -10 -17 -17 -16 -13 -17 -12 -4 4 13 16 21
21 21 13z m4261 -22 c140 -42 273 -135 361 -252 69 -93 104 -195 133 -387 16
-105 17 -132 6 -218 -27 -216 -121 -443 -236 -567 -69 -75 -142 -182 -158
-233 -26 -82 -23 -159 8 -196 60 -70 300 -102 458 -61 76 20 116 39 251 119
38 22 94 45 124 52 47 9 56 9 72 -6 50 -45 53 -191 6 -282 -23 -47 -24 -53 -9
-53 10 0 34 14 53 31 82 71 113 89 151 89 33 0 41 -5 54 -30 8 -16 18 -55 21
-87 10 -102 -63 -345 -144 -473 -134 -213 -311 -373 -470 -425 l-53 -17 -46
36 c-26 20 -50 33 -55 28 -4 -4 2 -33 14 -65 l21 -58 -24 -25 c-35 -38 -68
-52 -129 -55 l-53 -3 -64 63 -63 64 0 -38 0 -38 -116 7 c-64 3 -121 9 -128 13
-6 4 -18 8 -26 10 -101 14 -162 32 -309 95 -106 45 -119 52 -210 120 -125 93
-217 215 -253 332 -17 58 -20 85 -15 175 7 141 42 236 150 414 41 66 42 67
112 88 183 53 284 104 438 217 137 101 250 266 278 406 15 71 -1 125 -50 174
l-39 38 54 47 c96 85 142 224 132 402 -5 94 -28 153 -84 214 -56 63 -106 86
-184 84 -114 -1 -210 -64 -259 -168 -36 -76 -61 -190 -61 -277 0 -43 -4 -78
-9 -78 -5 0 -21 4 -35 9 l-24 10 21 53 c17 43 21 76 21 178 1 108 -2 130 -20
165 -33 63 -91 98 -170 103 l-65 4 62 57 c116 104 211 164 314 196 58 19 182
18 246 -1z m-5161 -24 c0 -5 -6 -10 -14 -10 -25 0 -107 -52 -116 -74 -5 -11
-9 -15 -9 -8 -1 8 -11 5 -32 -10 -20 -15 -29 -29 -25 -41 4 -16 2 -16 -12 -5
-14 11 -15 10 -9 -5 4 -10 3 -16 -3 -12 -14 8 -30 -28 -24 -56 4 -21 3 -22 -5
-4 -5 11 -10 17 -10 13 -1 -5 0 -9 1 -10 2 -2 -5 -14 -14 -27 -9 -13 -15 -28
-14 -35 2 -6 1 -7 -2 -2 -3 6 -13 -10 -23 -35 -10 -24 -18 -37 -18 -28 -1 10
19 57 43 106 32 62 61 104 100 141 30 29 59 52 64 52 6 0 17 6 24 13 16 17 68
44 86 46 6 1 12 -3 12 -9z m860 6 c0 -2 -7 -9 -15 -16 -13 -11 -14 -10 -9 4 5
14 24 23 24 12z m-1400 -103 c63 -78 117 -169 107 -179 -2 -3 -12 11 -21 30
-16 33 -125 186 -153 214 -15 15 -33 8 -33 -14 0 -8 4 -13 9 -10 4 3 6 -7 3
-22 l-6 -27 -7 25 c-28 99 14 92 101 -17z m612 35 c-26 -41 -92 -106 -92 -90
0 7 4 12 9 12 4 0 28 27 52 60 45 62 66 74 31 18z m3946 -3 c-3 -3 -9 2 -12
12 -6 14 -5 15 5 6 7 -7 10 -15 7 -18z m-4128 -49 c0 -2 -8 -10 -17 -17 -16
-13 -17 -12 -4 4 13 16 21 21 21 13z m-775 -41 c66 -20 94 -39 69 -49 -8 -3
-13 -2 -10 3 5 7 -25 20 -49 22 -2 0 -17 6 -32 14 -23 12 -28 12 -40 -3 -9
-11 -12 -12 -11 -3 2 7 -3 16 -11 19 -10 3 -12 0 -7 -14 4 -14 1 -12 -14 6
-11 14 -20 28 -20 31 0 8 38 0 125 -26z m719 27 c3 -5 -1 -9 -9 -9 -8 0 -12 4
-9 9 3 4 7 8 9 8 2 0 6 -4 9 -8z m625 -67 c0 -5 -4 -3 -9 5 -5 8 -9 22 -9 30
0 16 17 -16 18 -35z m131 41 c0 -3 -4 -8 -10 -11 -5 -3 -10 -1 -10 4 0 6 5 11
10 11 6 0 10 -2 10 -4z m-773 -37 c-8 -13 -13 -15 -19 -6 -5 8 -8 7 -8 -5 0
-9 -4 -20 -10 -23 -6 -4 -7 1 -3 12 9 27 21 40 37 40 11 0 12 -4 3 -18z m133
-9 c-22 -31 -40 -46 -40 -34 0 8 51 64 58 64 2 0 -6 -13 -18 -30z m583 23 c-7
-2 -19 -2 -25 0 -7 3 -2 5 12 5 14 0 19 -2 13 -5z m-1485 -38 c-3 -3 -9 2 -12
12 -6 14 -5 15 5 6 7 -7 10 -15 7 -18z m79 18 c-4 -3 -1 -13 6 -22 11 -14 10
-14 -5 -2 -16 12 -16 31 -1 31 4 0 3 -3 0 -7z m170 -58 c24 -16 43 -33 43 -37
0 -7 -59 29 -86 51 -7 6 -15 7 -18 4 -3 -4 -6 0 -6 8 0 11 -2 11 -10 -1 -8
-12 -10 -11 -10 7 0 20 2 21 23 10 12 -7 41 -25 64 -42z m-92 -5 c3 -5 1 -10
-4 -10 -6 0 -11 5 -11 10 0 6 2 10 4 10 3 0 8 -4 11 -10z m1159 -47 c-6 -34
-47 -95 -95 -144 -15 -15 -16 -15 -16 8 0 18 2 21 8 12 6 -10 9 -7 9 11 0 14
7 33 14 43 20 27 29 20 10 -8 -9 -14 -14 -28 -12 -31 7 -6 39 43 43 68 8 38
18 63 29 70 17 12 17 11 10 -29z m-797 -15 c-3 -7 -5 -2 -5 12 0 14 2 19 5 13
2 -7 2 -19 0 -25z m711 8 c-7 -8 -16 -12 -19 -10 -4 2 -25 -3 -48 -11 -23 -8
-41 -10 -41 -5 0 5 19 14 43 20 23 6 47 13 52 15 21 7 25 5 13 -9z m4951 -11
c42 -21 87 -94 102 -164 16 -77 0 -211 -34 -277 -29 -56 -89 -118 -130 -133
-38 -15 -122 -14 -150 2 -80 44 -109 102 -115 223 -5 99 10 169 53 254 27 52
47 72 101 100 46 24 122 22 173 -5z m-5829 -16 c15 -28 5 -23 -15 7 -9 15 -12
23 -6 20 6 -4 16 -16 21 -27z m5279 6 c26 -27 51 -109 51 -164 -1 -96 -38
-206 -73 -215 -28 -7 -30 -4 -12 30 20 38 19 133 -1 184 -52 128 -184 36 -184
-128 0 -38 7 -71 20 -97 11 -21 19 -39 17 -40 -1 -1 -22 -10 -46 -20 -43 -19
-44 -19 -57 0 -26 35 -36 98 -31 185 7 121 28 181 87 242 l48 50 81 -3 c64 -3
84 -8 100 -24z m-4519 -15 c0 -5 -7 -7 -15 -4 -8 4 -15 8 -15 10 0 2 7 4 15 4
8 0 15 -4 15 -10z m-40 -10 c0 -5 -9 -10 -19 -10 -11 0 -23 -5 -26 -10 -4 -6
-11 -8 -16 -5 -5 4 -9 0 -9 -8 0 -10 -7 -13 -21 -10 -26 7 -15 18 36 36 51 19
55 19 55 7z m60 -30 c0 -5 -5 -10 -11 -10 -5 0 -7 5 -4 10 3 6 8 10 11 10 2 0
4 -4 4 -10z m-1230 -22 c0 -4 -12 -8 -26 -8 -14 0 -23 4 -20 8 2 4 14 8 25 8
12 0 21 -4 21 -8z m70 -7 c0 -12 -49 -8 -54 4 -2 7 6 10 25 7 16 -2 29 -7 29
-11z m984 11 c3 -5 -1 -9 -9 -9 -8 0 -15 4 -15 9 0 4 4 8 9 8 6 0 12 -4 15 -8z
m-1141 -13 c-5 -4 -21 -9 -38 -12 -16 -3 -34 -6 -40 -7 -31 -7 -35 3 -5 13 38
14 95 18 83 6z m213 -2 c4 -4 -5 -7 -20 -7 -15 0 -25 4 -22 9 7 10 31 9 42 -2z
m881 -11 c-8 -8 -17 -12 -21 -9 -3 4 -6 1 -6 -5 0 -7 -8 -12 -17 -12 -15 0
-14 -2 3 -15 13 -11 14 -14 4 -13 -8 2 -18 7 -21 12 -4 5 -21 -5 -38 -23 -17
-17 -35 -31 -41 -31 -13 0 52 59 104 94 40 27 60 28 33 2z m-824 -3 c-7 -2
-21 -2 -30 0 -10 3 -4 5 12 5 17 0 24 -2 18 -5z m934 -8 c0 -8 -4 -12 -9 -9
-5 3 -6 10 -3 15 9 13 12 11 12 -6z m-882 -5 c3 -5 -1 -10 -10 -10 -9 0 -13 5
-10 10 3 6 8 10 10 10 2 0 7 -4 10 -10z m838 -10 c-3 -12 -8 -19 -11 -16 -5 6
5 36 12 36 2 0 2 -9 -1 -20z m-23 -1 c0 -15 -18 -19 -23 -6 -3 8 1 14 9 14 8
0 14 -4 14 -8z m-1273 -5 c-3 -3 -12 -4 -19 -1 -8 3 -5 6 6 6 11 1 17 -2 13
-5z m493 2 c0 -3 -4 -8 -10 -11 -5 -3 -10 -1 -10 4 0 6 5 11 10 11 6 0 10 -2
10 -4z m1013 -21 c-3 -9 -8 -14 -10 -11 -3 3 -2 9 2 15 9 16 15 13 8 -4z
m-433 -49 c0 -3 -4 -8 -10 -11 -5 -3 -10 -1 -10 4 0 6 5 11 10 11 6 0 10 -2
10 -4z m-480 -61 c0 -5 -5 -3 -10 5 -5 8 -10 20 -10 25 0 6 5 3 10 -5 5 -8 10
-19 10 -25z m213 20 c-3 -9 -8 -14 -10 -11 -3 3 -2 9 2 15 9 16 15 13 8 -4z
m-252 -39 c-6 -8 -9 -22 -5 -32 4 -12 3 -15 -3 -7 -6 8 -24 -15 -55 -70 -47
-85 -48 -102 -5 -110 19 -4 18 -4 -4 -6 -15 0 -32 6 -39 14 -13 16 -12 20 64
150 25 44 46 87 47 95 1 10 3 9 6 -3 3 -10 0 -24 -6 -31z m116 22 c-3 -8 -6
-5 -6 6 -1 11 2 17 5 13 3 -3 4 -12 1 -19z m952 8 c-9 -9 -99 -12 -111 -5 -8
5 13 9 51 9 35 0 62 -2 60 -4z m52 -24 c-7 -2 -18 1 -23 6 -8 8 -4 9 13 5 13
-4 18 -8 10 -11z m-767 -137 c3 -11 0 -6 -8 10 -8 17 -15 55 -14 85 l1 55 7
-65 c4 -36 10 -74 14 -85z m262 12 c7 -20 16 -74 20 -120 7 -92 -2 -104 -11
-14 -10 105 -16 131 -46 191 -16 33 -29 64 -29 69 0 14 50 -81 66 -126z m572
116 c-10 -2 -26 -2 -35 0 -10 3 -2 5 17 5 19 0 27 -2 18 -5z m-318 -63 c0 -5
7 -7 15 -4 8 4 15 1 15 -5 0 -6 6 -11 14 -11 19 0 95 -85 112 -125 21 -51 16
-57 -7 -7 -12 27 -23 41 -30 36 -7 -4 -10 -1 -7 7 6 19 -34 51 -45 36 -6 -8
-7 -6 -3 5 6 20 -36 54 -54 43 -5 -3 -10 -1 -10 4 0 6 -9 11 -20 11 -11 0 -20
5 -20 10 0 6 9 10 20 10 11 0 20 -4 20 -10z m-441 -104 c-3 -3 -11 5 -18 17
-13 21 -12 21 5 5 10 -10 16 -20 13 -22z m21 -105 c25 -23 36 -38 25 -33 -26
13 -68 59 -89 97 -17 30 -17 30 1 5 10 -14 38 -45 63 -69z m4894 81 c3 -5 -1
-9 -9 -9 -8 0 -15 4 -15 9 0 4 4 8 9 8 6 0 12 -4 15 -8z m106 -2 c0 -5 -5 -10
-11 -10 -5 0 -7 5 -4 10 3 6 8 10 11 10 2 0 4 -4 4 -10z m-4989 -27 c13 -16
12 -17 -3 -4 -10 7 -18 15 -18 17 0 8 8 3 21 -13z m148 -27 c-3 -3 -11 5 -18
17 -13 21 -12 21 5 5 10 -10 16 -20 13 -22z m4911 24 c0 -5 -2 -10 -4 -10 -3
0 -8 5 -11 10 -3 6 -1 10 4 10 6 0 11 -4 11 -10z m-976 -22 c-10 -13 -20 -25
-21 -27 -2 -2 -3 1 -3 7 0 11 27 42 37 42 3 0 -2 -10 -13 -22z m1943 -10 c-3
-7 -5 -2 -5 12 0 14 2 19 5 13 2 -7 2 -19 0 -25z m-932 11 c11 -16 1 -19 -13
-3 -7 8 -8 14 -3 14 5 0 13 -5 16 -11z m41 -40 c19 -22 19 -22 -3 -8 -13 8
-23 17 -23 21 0 12 6 9 26 -13z m-436 1 c0 -5 -7 -10 -16 -10 -8 0 -12 5 -9
10 3 6 10 10 16 10 5 0 9 -4 9 -10z m-623 -22 c-3 -8 -6 -5 -6 6 -1 11 2 17 5
13 3 -3 4 -12 1 -19z m1940 -10 c-3 -7 -5 -2 -5 12 0 14 2 19 5 13 2 -7 2 -19
0 -25z m-1109 8 c-7 -8 -15 -12 -17 -11 -5 6 10 25 20 25 5 0 4 -6 -3 -14z
m-380 -23 c-10 -2 -26 -2 -35 0 -10 3 -2 5 17 5 19 0 27 -2 18 -5z m474 -35
c-6 -6 -7 0 -4 19 5 21 7 23 10 9 2 -10 0 -22 -6 -28z m-3263 -148 c1 -43 14
-70 33 -70 4 0 9 19 9 43 1 23 3 34 6 24 2 -9 9 -14 15 -11 6 4 14 0 19 -7 6
-10 8 -8 7 8 -1 12 -7 19 -15 16 -15 -6 -18 13 -3 22 18 11 11 35 -7 29 -17
-5 -17 -5 0 9 11 9 15 21 10 33 -6 16 -5 17 9 4 8 -8 14 -20 11 -26 -2 -7 0
-15 6 -18 6 -4 9 -19 7 -34 -2 -15 -1 -19 1 -9 2 9 11 17 18 17 9 0 12 6 9 15
-4 8 -10 13 -14 10 -13 -8 -20 9 -9 25 5 8 9 10 9 4 0 -6 10 -10 23 -9 12 1
27 -2 34 -7 7 -6 34 -12 60 -14 26 -3 51 -10 55 -17 5 -8 8 -5 9 8 0 11 7 -18
16 -65 17 -101 59 -196 138 -311 32 -46 72 -113 89 -149 28 -59 31 -74 30
-155 -1 -111 -21 -169 -97 -289 -89 -140 -121 -225 -121 -321 -1 -135 32 -210
164 -380 86 -109 136 -206 145 -279 6 -46 3 -63 -21 -117 -16 -35 -57 -102
-92 -149 -89 -120 -114 -176 -120 -264 -5 -80 7 -133 43 -181 35 -48 41 -62
17 -41 -17 14 -22 16 -22 5 -1 -10 -4 -9 -11 4 -6 9 -15 14 -21 11 -7 -4 -8
-2 -4 5 4 6 12 9 17 6 5 -4 9 -3 9 2 0 11 -20 40 -20 29 0 -5 -7 -3 -15 4 -25
21 -35 1 -35 -71 0 -50 -3 -68 -12 -67 -9 2 -15 -15 -19 -47 -6 -48 -6 -49 -8
-10 -7 184 -129 325 -317 365 l-60 13 -18 67 c-25 99 -52 145 -136 234 -139
148 -165 201 -165 331 0 119 15 145 157 276 148 137 156 145 184 207 71 156
39 327 -87 466 -148 164 -178 226 -160 327 12 71 26 95 126 220 106 132 135
229 101 339 -8 25 -17 54 -20 65 -4 11 5 -2 18 -30 15 -30 25 -69 25 -95z m47
79 c-2 -19 1 -37 8 -42 8 -5 6 -10 -6 -18 -10 -5 -18 -21 -18 -34 0 -14 -5
-25 -11 -25 -7 0 -8 16 -4 48 4 26 7 61 6 77 0 24 2 27 10 15 8 -11 9 -8 5 15
-5 23 -4 26 4 14 5 -10 8 -32 6 -50z m271 29 c-3 -7 -5 -2 -5 12 0 14 2 19 5
13 2 -7 2 -19 0 -25z m3281 15 c-10 -2 -26 -2 -35 0 -10 3 -2 5 17 5 19 0 27
-2 18 -5z m136 -65 c21 -29 21 -115 0 -164 -50 -119 -187 -259 -355 -361 -74
-46 -109 -60 -109 -44 0 6 3 10 8 9 16 -5 72 28 67 40 -3 7 0 10 5 7 11 -7 79
30 92 49 4 6 8 7 8 2 0 -5 9 -1 20 9 11 10 17 22 14 27 -3 4 -2 8 3 7 20 -3
25 2 14 15 -8 10 -9 16 -1 21 6 4 9 3 8 -2 -3 -9 5 -13 23 -13 8 0 7 6 -2 18
-13 16 -13 16 5 2 16 -12 20 -13 24 -1 2 7 18 27 36 43 17 17 30 36 28 42 -2
6 0 8 3 4 8 -8 45 34 45 51 0 6 5 11 11 11 19 0 59 108 59 160 0 45 -3 51 -42
85 -39 34 -40 36 -11 21 17 -9 39 -26 47 -38z m-4124 17 c0 -9 -6 -12 -17 -8
-11 4 -13 8 -5 11 7 2 9 9 6 14 -4 7 -2 8 4 4 7 -4 12 -14 12 -21z m402 -17
c-9 -9 -12 -7 -12 12 0 19 3 21 12 12 9 -9 9 -15 0 -24z m-450 -20 c-6 -6 -7
0 -4 19 5 21 7 23 10 9 2 -10 0 -22 -6 -28z m33 12 c3 -5 1 -10 -4 -10 -6 0
-11 5 -11 10 0 6 2 10 4 10 3 0 8 -4 11 -10z m3918 -27 c-13 -2 -33 -2 -45 0
-13 2 -3 4 22 4 25 0 35 -2 23 -4z m-3908 -23 c3 -5 1 -10 -4 -10 -6 0 -11 5
-11 10 0 6 2 10 4 10 3 0 8 -4 11 -10z m3692 -6 c-3 -3 -12 -4 -19 -1 -8 3 -5
6 6 6 11 1 17 -2 13 -5z m298 -113 c-22 -44 -26 -38 -7 10 9 23 18 37 20 31 2
-6 -4 -24 -13 -41z m2 -83 c-3 -8 -6 -5 -6 6 -1 11 2 17 5 13 3 -3 4 -12 1
-19z m24 -11 c-8 -8 -11 -7 -11 4 0 20 13 34 18 19 3 -7 -1 -17 -7 -23z m-113
-24 c-8 -10 -26 -31 -39 -47 -13 -16 -33 -37 -44 -47 -69 -63 -89 -79 -97 -79
-5 0 -12 -9 -16 -20 -5 -13 -12 -16 -20 -11 -10 6 2 19 40 46 29 21 82 69 117
107 35 37 66 68 69 68 3 0 -2 -8 -10 -17z m-5533 -20 c113 -57 160 -228 105
-377 -26 -69 -55 -104 -118 -145 -42 -27 -58 -31 -113 -31 -109 1 -197 57
-240 152 -36 82 -34 202 5 286 30 65 80 118 119 127 73 16 198 10 242 -12z
m704 -95 c61 -22 119 -102 142 -192 22 -86 -18 -216 -82 -270 -54 -45 -89 -58
-156 -58 -56 0 -70 4 -111 32 -85 58 -120 143 -106 265 16 156 111 253 233
239 30 -3 66 -10 80 -16z m3168 -155 c-3 -10 -5 -2 -5 17 0 19 2 27 5 18 2
-10 2 -26 0 -35z m1343 17 c0 -5 -8 -10 -17 -10 -15 0 -16 2 -3 10 19 12 20
12 20 0z m-369 -27 c13 -16 12 -17 -3 -4 -10 7 -18 15 -18 17 0 8 8 3 21 -13z
m319 13 c0 -2 -7 -9 -15 -16 -13 -11 -14 -10 -9 4 5 14 24 23 24 12z m-439
-23 c13 -16 12 -17 -3 -4 -10 7 -18 15 -18 17 0 8 8 3 21 -13z m329 -3 c0 -5
-17 -9 -37 -9 l-38 2 35 7 c19 4 36 8 38 9 1 0 2 -3 2 -9z m194 -9 c-13 -14
-84 -25 -84 -14 0 17 13 23 27 12 9 -8 13 -8 13 -1 0 6 6 9 14 6 8 -3 17 0 21
6 4 6 10 9 13 5 3 -3 1 -9 -4 -14z m36 15 c0 -3 -4 -8 -10 -11 -5 -3 -10 -1
-10 4 0 6 5 11 10 11 6 0 10 -2 10 -4z m-377 -13 c-7 -2 -21 -2 -30 0 -10 3
-4 5 12 5 17 0 24 -2 18 -5z m-1049 -67 c-3 -21 -8 -35 -11 -32 -2 2 -1 20 3
40 3 21 8 35 11 32 2 -2 1 -20 -3 -40z m956 28 c0 -2 -9 -4 -20 -4 -11 0 -20
4 -20 9 0 5 9 7 20 4 11 -3 20 -7 20 -9z m280 -3 c0 -12 -39 -21 -45 -11 -3 5
5 11 17 13 13 2 24 5 26 6 1 0 2 -3 2 -8z m37 3 c-3 -3 -12 -4 -19 -1 -8 3 -5
6 6 6 11 1 17 -2 13 -5z m-217 -20 c0 -2 -9 -4 -21 -4 -11 0 -18 4 -14 10 5 8
35 3 35 -6z m120 6 c0 -5 -8 -10 -17 -10 -15 0 -16 2 -3 10 19 12 20 12 20 0z
m-1250 -280 l-8 -35 -1 31 c-1 17 2 34 6 37 11 12 12 3 3 -33z m667 -372 c-3
-8 -6 -5 -6 6 -1 11 2 17 5 13 3 -3 4 -12 1 -19z m160 -350 c-3 -7 -5 -2 -5
12 0 14 2 19 5 13 2 -7 2 -19 0 -25z m-5277 -23 c11 -13 10 -14 -4 -9 -9 3
-16 10 -16 15 0 13 6 11 20 -6z m5171 -80 c6 -11 -1 -6 -15 10 -15 17 -31 39
-37 50 -6 11 1 7 15 -10 15 -16 31 -39 37 -50z m-5212 -25 c-29 -95 -34 -84
-7 15 12 44 23 74 25 68 2 -6 -6 -43 -18 -83z m5328 58 c-3 -7 -5 -2 -5 12 0
14 2 19 5 13 2 -7 2 -19 0 -25z m-10 -75 c-3 -10 -5 -4 -5 12 0 17 2 24 5 18
2 -7 2 -21 0 -30z m-77 -18 c0 -5 -5 -3 -10 5 -5 8 -10 20 -10 25 0 6 5 3 10
-5 5 -8 10 -19 10 -25z m49 -41 c-22 -23 -24 -24 -36 -8 -19 25 -15 43 3 19
16 -20 16 -20 32 1 9 12 19 20 21 18 3 -2 -6 -16 -20 -30z m-896 10 c103 -54
228 -179 302 -305 112 -191 255 -375 358 -462 28 -24 102 -79 162 -122 199
-140 294 -254 286 -343 -1 -13 -70 -82 -82 -82 -3 0 -15 21 -27 48 -30 66
-108 143 -247 243 -138 99 -224 175 -313 274 -74 84 -217 281 -274 380 -56 95
-179 217 -254 252 -32 14 -77 27 -101 27 -24 1 -43 3 -43 7 0 3 15 19 33 37
61 59 139 77 200 46z m1487 -38 c0 -3 -4 -8 -10 -11 -5 -3 -10 -1 -10 4 0 6 5
11 10 11 6 0 10 -2 10 -4z m-5923 -38 c-3 -7 -5 -2 -5 12 0 14 2 19 5 13 2 -7
2 -19 0 -25z m153 22 c0 -5 -2 -10 -4 -10 -3 0 -8 5 -11 10 -3 6 -1 10 4 10 6
0 11 -4 11 -10z m87 -22 c-3 -8 -6 -5 -6 6 -1 11 2 17 5 13 3 -3 4 -12 1 -19z
m-740 -24 c3 -18 2 -18 -7 1 -9 18 -10 17 -7 -6 2 -15 -2 -35 -10 -45 -7 -10
-13 -13 -13 -7 0 7 5 15 11 19 7 4 7 10 1 16 -13 13 -3 50 12 45 6 -2 12 -12
13 -23z m722 -60 c-12 -70 -19 -97 -25 -92 -2 3 3 36 11 74 8 38 15 73 15 78
0 5 2 7 5 4 3 -2 0 -31 -6 -64z m5626 56 c-3 -5 -12 -10 -18 -10 -7 0 -6 4 3
10 19 12 23 12 15 0z m-5858 -22 c-3 -8 -6 -5 -6 6 -1 11 2 17 5 13 3 -3 4
-12 1 -19z m7069 -115 c-1 -2 -9 8 -16 22 -7 14 -16 25 -20 25 -3 0 -7 12 -8
28 -1 22 3 18 23 -23 13 -27 23 -50 21 -52z m-5649 65 c-3 -8 -6 -5 -6 6 -1
11 2 17 5 13 3 -3 4 -12 1 -19z m2928 -24 c87 -57 117 -93 261 -309 97 -146
100 -150 87 -142 -5 3 -61 7 -124 8 -63 1 -145 5 -184 9 -38 5 -72 6 -74 4 -2
-2 3 -12 13 -23 14 -15 32 -19 99 -20 45 0 121 -4 170 -7 64 -5 91 -3 102 6 9
8 19 9 24 4 28 -34 109 -132 119 -145 10 -14 5 -15 -46 -12 -31 2 -93 8 -137
13 -85 9 -205 3 -205 -11 0 -17 82 -28 252 -31 l176 -4 64 -57 63 -58 -65 7
c-36 3 -76 8 -90 10 -14 2 -63 7 -110 10 -47 3 -104 9 -127 14 -48 8 -55 0
-20 -23 24 -15 72 -20 408 -42 23 -1 56 -17 96 -46 34 -24 100 -71 148 -104
81 -57 115 -90 115 -115 0 -7 -6 -8 -17 -1 -19 10 -199 31 -264 31 -58 0 -39
-16 33 -28 52 -9 206 -26 243 -27 13 0 23 -24 24 -57 1 -24 -3 -28 -26 -28
-90 0 -160 24 -322 110 -74 39 -191 113 -191 121 0 11 7 11 28 0 10 -5 53 -12
97 -15 126 -10 188 -17 213 -23 15 -4 22 -1 22 10 0 11 -27 18 -112 30 -160
23 -271 30 -263 17 17 -28 -28 -2 -160 94 -66 47 -178 138 -200 162 -22 24
-183 242 -207 279 -52 84 -108 249 -108 321 l0 40 43 3 c75 4 118 9 124 15 13
13 -10 20 -74 24 -56 4 -69 2 -80 -14 -9 -13 -13 -14 -13 -3 0 26 15 37 55 41
58 6 84 -1 140 -38z m-4882 7 c-4 -4 -11 -10 -14 -14 -4 -5 -6 3 -5 16 1 20 4
23 14 15 7 -6 9 -14 5 -17z m-30 -6 c-7 -21 -13 -19 -13 6 0 11 4 18 10 14 5
-3 7 -12 3 -20z m-20 -18 c3 -8 1 -20 -4 -28 -6 -10 -9 -7 -9 14 0 29 5 35 13
14z m7554 -19 c-3 -7 -5 -2 -5 12 0 14 2 19 5 13 2 -7 2 -19 0 -25z m-73 7
c-4 -8 -11 -12 -16 -9 -6 4 -5 10 3 15 19 12 19 11 13 -6z m-5675 -35 c0 -10
-3 -8 -9 5 -12 27 -12 43 0 25 5 -8 9 -22 9 -30z m5641 30 c0 -5 -2 -10 -4
-10 -3 0 -8 5 -11 10 -3 6 -1 10 4 10 6 0 11 -4 11 -10z m57 -12 c-3 -8 -6 -5
-6 6 -1 11 2 17 5 13 3 -3 4 -12 1 -19z m-32 -39 c9 -17 15 -33 13 -35 -3 -2
-12 12 -21 31 -21 43 -13 47 8 4z m-5658 -36 c-3 -10 -5 -4 -5 12 0 17 2 24 5
18 2 -7 2 -21 0 -30z m140 15 c-3 -8 -6 -5 -6 6 -1 11 2 17 5 13 3 -3 4 -12 1
-19z m576 -77 l30 -30 -39 1 c-60 1 -140 -42 -235 -125 -93 -81 -117 -95 -125
-72 -13 34 8 85 57 139 110 121 242 158 312 87z m5997 18 c0 -5 -7 -9 -15 -9
-8 0 -15 -5 -15 -12 0 -16 -13 -1 -16 18 -2 11 3 13 18 8 15 -4 18 -3 13 6 -5
9 -4 11 3 6 7 -4 12 -11 12 -17z m-6703 -41 c-2 -13 -4 -5 -4 17 -1 22 1 32 4
23 2 -10 2 -28 0 -40z m108 2 c-9 -41 -17 -33 -9 9 4 17 9 30 11 27 3 -2 2
-19 -2 -36z m6625 28 c0 -6 3 -9 6 -5 12 12 33 -20 27 -42 -3 -12 -1 -21 6
-21 6 0 10 -6 9 -12 -2 -7 3 -12 10 -10 6 1 12 -6 12 -15 0 -13 -5 -12 -26 8
-17 16 -24 31 -21 46 2 13 0 24 -4 24 -5 1 -15 2 -21 3 -16 1 -24 36 -9 36 6
0 11 -5 11 -12z m-75 -17 c15 -11 20 -22 15 -27 -6 -6 -2 -10 10 -11 23 -2 26
7 8 25 -6 6 -9 15 -5 19 15 15 31 -20 29 -64 -1 -41 12 -55 14 -15 4 60 7 67
13 32 4 -19 4 -43 -1 -52 -13 -27 -49 -17 -64 17 -9 21 -13 24 -14 11 0 -21
-10 -17 -14 6 -1 7 -5 19 -10 26 -4 7 -5 21 -2 30 5 13 3 13 -9 -2 -15 -19
-15 -19 -15 2 0 27 14 28 45 3z m-2218 -38 c-3 -10 -5 -2 -5 17 0 19 2 27 5
18 2 -10 2 -26 0 -35z m1563 19 c-1 -21 -29 -57 -53 -65 -11 -4 -16 -3 -12 3
3 6 12 10 18 10 19 0 39 39 31 62 -4 14 -2 18 5 14 6 -4 11 -15 11 -24z m-312
-23 c-1 -17 -4 -25 -8 -18 -7 10 -2 49 5 49 2 0 3 -14 3 -31z m1073 -72 c-10
-9 -11 -8 -5 6 3 10 9 15 12 12 3 -3 0 -11 -7 -18z m-5905 -3 c19 -9 33 -21
32 -26 -2 -5 -33 -19 -70 -32 -79 -28 -114 -51 -190 -124 -53 -51 -59 -55 -83
-44 -59 27 0 130 108 189 100 55 147 63 203 37z m4961 10 c-3 -3 -12 -4 -19
-1 -8 3 -5 6 6 6 11 1 17 -2 13 -5z m-6454 -125 c35 -9 57 -36 57 -70 0 -5
-44 -9 -99 -9 -106 0 -128 -5 -240 -57 -83 -38 -114 -39 -119 -6 -7 52 198
150 318 152 25 1 62 -4 83 -10z m1656 -26 c23 -15 23 -15 -33 -38 -73 -30
-115 -62 -161 -125 -33 -45 -41 -51 -69 -48 -27 3 -31 7 -29 30 3 43 49 102
116 146 99 65 121 70 176 35z m4562 -48 c65 -17 159 -65 174 -89 7 -12 4 -21
-13 -38 -20 -21 -25 -21 -54 -9 -137 56 -237 72 -342 52 -33 -6 -62 -9 -64 -6
-3 3 13 22 36 44 62 59 151 75 263 46z m913 -92 c50 -121 39 -181 -52 -302
-36 -47 -113 -135 -172 -196 -59 -60 -141 -150 -182 -200 -158 -190 -301 -294
-488 -354 -95 -30 -155 -40 -303 -47 -206 -10 -382 18 -500 79 -80 42 -110 83
-115 160 l-5 60 34 -20 c43 -26 192 -77 286 -97 50 -11 124 -16 241 -16 147 0
183 3 268 25 195 49 295 118 464 320 46 55 152 170 235 255 162 165 225 250
246 330 7 28 15 50 18 50 3 0 15 -21 25 -47z m-7016 -38 c37 -44 31 -48 -73
-59 -54 -5 -152 -43 -226 -88 -55 -33 -75 -35 -89 -7 -31 57 212 197 320 184
32 -3 52 -12 68 -30z m2480 0 c-3 -3 -9 2 -12 12 -6 14 -5 15 5 6 7 -7 10 -15
7 -18z m-3688 -8 c0 -35 44 -116 96 -176 26 -29 117 -106 203 -170 86 -65 212
-173 281 -240 154 -151 180 -172 272 -220 143 -74 300 -111 477 -111 166 0
340 41 440 103 l34 21 -5 -42 c-13 -96 -94 -175 -223 -215 -101 -31 -325 -31
-475 2 -171 36 -191 42 -275 81 -95 45 -156 90 -290 214 -149 138 -237 213
-367 310 -126 94 -161 129 -204 201 -24 41 -26 53 -22 113 6 68 33 152 49 152
5 0 9 -10 9 -23z m7160 -62 c65 -23 157 -83 187 -121 l26 -35 -20 -21 -20 -20
-40 25 c-94 59 -214 101 -278 95 -38 -3 -45 0 -45 15 0 10 13 32 29 48 24 23
38 29 74 29 24 0 64 -7 87 -15z m-3650 -144 c-10 -45 -22 -64 -66 -108 -84
-85 -305 -183 -514 -229 -100 -22 -329 -22 -478 -1 -140 21 -249 21 -378 2
-137 -21 -229 -20 -246 2 -7 9 -43 47 -79 84 -50 51 -68 76 -72 104 -5 28 -3
34 6 27 7 -5 43 -20 81 -32 62 -20 81 -22 180 -16 61 3 136 9 166 12 31 3 98
-2 153 -10 53 -9 141 -23 195 -32 69 -11 133 -14 222 -10 174 7 306 41 535
139 133 56 202 96 255 148 l35 34 8 -30 c6 -19 4 -51 -3 -84z m-2244 43 c16
-4 54 -59 54 -78 0 -2 -29 -1 -64 1 -79 7 -119 -6 -196 -63 -33 -24 -66 -44
-74 -44 -29 0 -46 13 -46 35 0 17 20 36 83 78 45 30 96 59 112 65 33 12 99 15
131 6z m2634 -44 c6 -11 8 -20 6 -20 -3 0 -10 9 -16 20 -6 11 -8 20 -6 20 3 0
10 -9 16 -20z m3190 -37 c60 -19 127 -76 136 -115 10 -46 -18 -45 -119 3 -78
37 -102 44 -154 44 -35 0 -63 2 -63 5 0 3 16 22 36 43 41 43 78 48 164 20z
m-3143 -95 c-3 -7 -5 -2 -5 12 0 14 2 19 5 13 2 -7 2 -19 0 -25z m3113 -74 c0
-2 -9 0 -20 6 -11 6 -20 13 -20 16 0 2 9 0 20 -6 11 -6 20 -13 20 -16z m40
-15 c0 -4 -7 -6 -15 -3 -8 4 -15 10 -15 15 0 4 7 6 15 3 8 -4 15 -10 15 -15z
m-985 -133 c6 -1 30 -12 55 -23 25 -11 55 -24 68 -27 12 -4 22 -11 22 -16 0
-5 9 -12 20 -15 11 -3 20 -13 20 -21 0 -8 5 -12 10 -9 21 13 27 -6 14 -42 -19
-56 -17 -134 7 -197 47 -127 238 -229 440 -237 l57 -2 35 -66 c20 -36 76 -111
124 -167 116 -133 123 -143 115 -147 -4 -2 -182 -3 -397 -3 l-389 1 -4 40
c-15 170 -99 340 -208 422 -94 71 -125 93 -130 93 -12 0 -116 71 -154 106 -23
21 -56 60 -74 88 -36 56 -83 163 -74 171 3 3 24 -2 48 -10 23 -8 74 -15 112
-15 70 0 104 11 182 60 31 19 36 19 36 5 0 -9 4 -14 9 -10 5 3 13 0 17 -6 4
-8 3 -9 -4 -5 -8 5 -12 -1 -12 -16 0 -18 -2 -20 -9 -8 -6 8 -7 18 -5 22 3 4
-2 8 -10 8 -19 0 -20 -11 -3 -29 10 -11 8 -11 -10 0 -18 10 -24 10 -37 0 -9
-8 -16 -19 -16 -25 0 -6 7 -3 14 7 7 9 17 17 21 17 5 0 1 -8 -8 -18 -14 -15
-32 -17 -134 -15 -65 1 -131 5 -148 8 -17 4 -25 3 -19 -2 6 -4 14 -25 18 -46
4 -22 11 -35 17 -31 6 3 10 0 8 -7 -3 -27 1 -40 11 -34 6 4 10 3 9 -2 -4 -16
13 -43 23 -37 6 4 14 0 20 -7 6 -9 7 1 4 30 -3 24 -11 50 -17 57 -8 10 -8 14
0 14 6 0 11 -5 11 -11 0 -5 5 -7 12 -3 7 5 8 3 3 -7 -7 -11 -5 -11 9 1 17 13
18 13 14 -5 -2 -11 -9 -19 -16 -18 -9 2 -9 -4 0 -23 8 -17 14 -21 17 -13 7 22
31 43 31 28 0 -7 2 -10 5 -7 3 3 1 16 -4 30 -7 19 -6 25 5 25 9 0 13 -6 10
-14 -4 -8 -1 -11 5 -7 6 3 9 17 6 30 -2 13 2 29 9 35 12 9 13 6 8 -19 -6 -29
9 -52 21 -32 3 5 0 10 -7 10 -9 1 -8 4 3 13 9 7 18 18 20 26 4 10 8 9 19 -5 8
-10 10 -15 4 -11 -7 4 -14 -2 -17 -13 -3 -11 -2 -20 1 -20 14 1 42 28 43 41 0
9 2 10 5 2 7 -17 34 -4 34 16 0 9 3 12 8 6 4 -6 12 -11 19 -10 16 0 55 52 44
59 -5 4 -12 0 -15 -6 -3 -7 -4 -4 -1 7 6 25 -9 50 -24 41 -6 -4 -11 -2 -11 5
0 7 8 9 23 5 12 -4 27 -8 32 -10z m-352 -126 c3 -11 1 -20 -4 -20 -5 0 -9 8
-10 18 0 10 -3 12 -6 5 -8 -22 -21 -14 -19 11 1 19 4 22 17 15 9 -4 19 -18 22
-29z m25 -5 c-3 -3 -9 2 -12 12 -6 14 -5 15 5 6 7 -7 10 -15 7 -18z m92 15 c0
-5 -2 -10 -4 -10 -3 0 -8 5 -11 10 -3 6 -1 10 4 10 6 0 11 -4 11 -10z m-118
-62 c-7 -7 -12 -8 -12 -2 0 14 12 26 19 19 2 -3 -1 -11 -7 -17z m-1975 -170
c-3 -8 -6 -5 -6 6 -1 11 2 17 5 13 3 -3 4 -12 1 -19z m58 -148 c3 -5 1 -10 -4
-10 -6 0 -11 5 -11 10 0 6 2 10 4 10 3 0 8 -4 11 -10z m-2241 -112 c-4 -7 -35
-46 -68 -86 -73 -86 -133 -182 -147 -234 l-10 -38 -112 -1 c-140 -1 -340 1
-343 4 -1 1 8 23 20 48 38 82 113 169 205 239 19 14 42 32 51 42 10 9 20 14
23 12 16 -16 357 3 375 21 10 9 13 5 6 -7z m2376 -175 c-11 -17 -11 -17 -6 0
3 10 7 35 8 55 l1 37 4 -37 c2 -21 -1 -46 -7 -55z m-303 -179 c-3 -3 -12 -4
-19 -1 -8 3 -5 6 6 6 11 1 17 -2 13 -5z"/>
<path d="M1113 14544 c-7 -3 -13 -14 -13 -24 0 -12 25 -30 83 -58 45 -22 97
-54 115 -71 18 -17 37 -31 41 -31 18 0 33 31 27 54 -7 29 -77 89 -127 110 -40
16 -109 27 -126 20z"/>
<path d="M890 14338 c-86 -58 -49 -178 54 -178 35 0 48 5 56 19 15 29 12 133
-4 157 -20 28 -66 29 -106 2z"/>
<path d="M6277 14498 c-46 -50 -110 -190 -115 -254 -6 -69 12 -140 47 -184 39
-50 96 -165 116 -235 28 -95 37 -115 51 -115 11 0 14 18 14 75 0 70 -4 85 -67
233 -63 146 -67 162 -68 232 0 71 3 81 48 167 26 51 47 96 47 102 0 23 -43 10
-73 -21z"/>
<path d="M6275 13548 c-72 -25 -85 -30 -149 -57 -27 -12 -52 -21 -57 -21 -18
0 -176 -109 -212 -146 -50 -52 -87 -128 -87 -180 0 -108 78 -250 129 -237 12
3 21 9 21 13 0 5 8 7 18 5 41 -6 49 10 45 87 -5 69 -3 76 27 120 17 26 48 61
68 78 20 18 48 42 62 54 14 13 57 39 95 60 83 44 155 121 155 165 0 27 -33 82
-48 80 -4 0 -34 -10 -67 -21z m-218 -204 c-3 -3 -12 -4 -19 -1 -8 3 -5 6 6 6
11 1 17 -2 13 -5z m-216 -371 c-12 -20 -14 -14 -5 12 4 9 9 14 11 11 3 -2 0
-13 -6 -23z"/>
<path d="M6090 12672 c0 -22 11 -39 44 -70 93 -86 167 -114 174 -67 5 37 -122
143 -190 160 -26 7 -28 5 -28 -23z"/>
<path d="M7680 14320 c8 -5 24 -10 35 -10 28 0 170 -47 220 -72 136 -70 275
-172 419 -308 110 -105 74 -47 -44 71 -170 168 -331 264 -526 313 -72 18 -128
21 -104 6z"/>
<path d="M8246 13685 c-36 -13 -96 -60 -96 -76 0 -4 51 -7 113 -6 98 2 118 -1
162 -21 60 -28 89 -53 126 -111 36 -56 37 -37 3 53 -32 83 -82 137 -149 160
-58 19 -107 20 -159 1z"/>
<path d="M8253 13413 c-56 -19 -132 -88 -165 -150 -35 -63 -58 -157 -58 -230
0 -74 32 -203 64 -258 96 -163 311 -214 433 -102 113 104 150 260 109 457 -48
231 -203 345 -383 283z m177 -98 c82 -42 134 -169 133 -325 0 -143 -42 -232
-127 -271 -73 -33 -125 -23 -203 38 -75 59 -113 150 -113 270 0 122 41 225
112 277 48 34 141 39 198 11z"/>
<path d="M8300 13140 c-69 -74 -41 -317 39 -335 89 -19 153 93 131 229 -16 97
-45 136 -103 136 -31 0 -45 -6 -67 -30z"/>
<path d="M9041 12984 c0 -11 3 -14 6 -6 3 7 2 16 -1 19 -3 4 -6 -2 -5 -13z"/>
<path d="M9062 12780 c0 -14 2 -19 5 -12 2 6 2 18 0 25 -3 6 -5 1 -5 -13z"/>
<path d="M9071 12664 c0 -11 3 -14 6 -6 3 7 2 16 -1 19 -3 4 -6 -2 -5 -13z"/>
<path d="M7921 12612 c-11 -21 -36 -58 -56 -82 -37 -44 -40 -55 -11 -44 31 12
114 148 96 159 -5 3 -18 -12 -29 -33z"/>
<path d="M8430 11530 c-118 -234 -348 -509 -552 -659 -53 -39 -100 -71 -103
-71 -13 0 -205 -132 -205 -141 0 -13 173 79 275 146 119 78 247 195 370 340
82 96 262 409 252 438 -2 7 -19 -17 -37 -53z"/>
<path d="M7560 10619 c0 -5 5 -7 10 -4 6 3 10 8 10 11 0 2 -4 4 -10 4 -5 0
-10 -5 -10 -11z"/>
<path d="M2922 14105 c-64 -81 -46 -244 29 -275 41 -17 68 -4 90 43 33 74 20
186 -28 239 -24 26 -68 23 -91 -7z"/>
<path d="M3030 12830 c0 -5 5 -10 10 -10 6 0 10 5 10 10 0 6 -4 10 -10 10 -5
0 -10 -4 -10 -10z"/>
<path d="M3060 12798 c0 -9 -6 -19 -12 -21 -10 -4 -10 -6 0 -6 14 -1 28 26 18
36 -3 4 -6 -1 -6 -9z"/>
<path d="M3095 12761 c0 -34 2 -38 17 -30 20 11 43 49 30 49 -5 0 -14 -10 -20
-22 -10 -21 -11 -22 -11 -3 -2 39 -17 45 -16 6z"/>
<path d="M3210 12735 c-11 -13 -10 -14 4 -9 9 3 16 10 16 15 0 13 -6 11 -20
-6z"/>
<path d="M3220 12699 c0 -9 47 -5 57 5 4 3 -7 6 -25 4 -18 -1 -32 -5 -32 -9z"/>
<path d="M7711 13085 c-17 -20 -33 -47 -36 -60 -3 -14 -7 -36 -10 -49 -6 -30
13 -132 30 -167 35 -67 123 -58 156 15 36 80 15 234 -38 275 -38 30 -66 26
-102 -14z"/>
<path d="M993 11387 c2 -7 39 -33 83 -59 43 -25 93 -58 110 -72 38 -32 60 -33
69 -5 12 35 -24 70 -96 95 -121 41 -170 53 -166 41z"/>
<path d="M7171 11644 c0 -11 3 -14 6 -6 3 7 2 16 -1 19 -3 4 -6 -2 -5 -13z"/>
<path d="M3517 11483 c-4 -3 -7 -11 -7 -17 0 -6 5 -5 12 2 6 6 9 14 7 17 -3 3
-9 2 -12 -2z"/>
<path d="M9380 10198 c-77 -42 -135 -82 -135 -93 0 -18 124 -18 151 0 47 30
74 102 45 119 -3 2 -31 -10 -61 -26z"/>
<path d="M884 9345 c3 -21 16 -31 16 -12 0 9 -4 18 -9 21 -5 4 -8 -1 -7 -9z"/>
<path d="M3435 7069 c-4 -6 -5 -12 -2 -15 2 -3 7 2 10 11 7 17 1 20 -8 4z"/>
<path d="M795 5858 c-47 -25 -60 -81 -27 -110 29 -26 107 1 117 40 6 24 -17
72 -34 72 -5 0 -15 2 -23 5 -7 2 -22 0 -33 -7z"/>
<path d="M7640 6023 c0 -6 -11 -9 -24 -8 -18 2 -23 -1 -19 -11 7 -18 14 -18
39 0 10 8 16 18 11 22 -4 4 -7 3 -7 -3z"/>
<path d="M7550 5980 c-13 -24 -12 -24 5 -10 10 8 21 14 24 12 3 -2 7 2 9 10 3
10 2 10 -6 -1 -8 -11 -10 -11 -14 0 -3 9 -9 6 -18 -11z"/>
<path d="M7450 5976 c0 -2 8 -10 18 -17 15 -13 16 -12 3 4 -13 16 -21 21 -21
13z"/>
<path d="M8285 3803 c6 -6 51 -27 100 -48 50 -20 123 -55 164 -78 l73 -40 108
2 c67 1 111 -3 115 -9 10 -16 -30 -74 -89 -127 -59 -54 -125 -80 -230 -90 -36
-3 -66 -10 -66 -15 0 -21 75 -40 141 -36 75 4 75 4 14 -57 -117 -118 -249
-158 -445 -136 -137 15 -246 61 -333 140 -94 85 -131 180 -125 322 3 98 -5
107 -37 43 -16 -32 -20 -59 -20 -149 0 -103 2 -113 30 -164 76 -138 209 -231
402 -281 63 -16 239 -14 319 4 142 33 257 120 323 246 20 37 62 93 99 130 102
101 126 185 69 237 -19 17 -40 21 -142 26 -129 6 -185 15 -310 53 -95 28 -175
41 -160 27z"/>
<path d="M7837 5389 c-33 -19 -60 -90 -65 -169 -4 -73 -3 -76 30 -113 20 -22
46 -40 65 -43 27 -5 37 -1 63 26 44 45 60 88 60 160 0 64 -9 90 -43 128 -22
24 -78 30 -110 11z"/>
<path d="M4445 4771 c-3 -5 -2 -12 3 -15 5 -3 9 1 9 9 0 17 -3 19 -12 6z"/>
<path d="M4390 4746 c0 -2 7 -9 15 -16 9 -7 15 -8 15 -2 0 5 -7 12 -15 16 -8
3 -15 4 -15 2z"/>
<path d="M4370 4711 c0 -6 4 -13 10 -16 6 -3 7 1 4 9 -7 18 -14 21 -14 7z"/>
<path d="M4356 4685 c4 -23 3 -27 -5 -15 -8 11 -11 12 -11 2 0 -8 9 -16 20
-19 11 -3 20 -13 20 -22 0 -14 2 -14 10 -1 6 9 5 17 -2 21 -6 4 -17 20 -24 36
l-13 28 5 -30z"/>
<path d="M4318 4695 c-7 -7 2 -55 11 -55 3 0 6 14 7 30 1 28 -6 37 -18 25z"/>
<path d="M4413 4685 c0 -8 4 -15 9 -15 4 0 8 7 8 15 0 8 -4 15 -8 15 -5 0 -9
-7 -9 -15z"/>
<path d="M4370 4443 c-117 -133 -128 -263 -33 -380 24 -30 60 -81 79 -114 36
-62 43 -66 75 -49 30 16 24 57 -15 100 -58 64 -116 172 -123 228 -5 45 -1 59
41 144 25 52 46 99 46 106 0 25 -30 10 -70 -35z"/>
<path d="M4382 3207 c-61 -55 -117 -119 -134 -152 -18 -33 -20 -52 -16 -127 6
-97 35 -163 86 -195 15 -10 29 -21 32 -24 3 -4 18 -11 33 -14 20 -5 27 -4 27
8 0 8 -7 20 -14 27 -8 6 -30 34 -48 63 -30 46 -32 57 -33 132 0 72 3 85 26
116 44 58 79 125 71 135 -4 5 -3 6 2 2 10 -9 37 23 30 34 -8 12 -47 9 -62 -5z
m-52 -437 c0 -5 -2 -10 -4 -10 -3 0 -8 5 -11 10 -3 6 -1 10 4 10 6 0 11 -4 11
-10z"/>
<path d="M4446 2515 c-9 -26 -7 -32 5 -12 6 10 9 21 6 23 -2 3 -7 -2 -11 -11z"/>
<path d="M2050 4379 c-66 -27 -101 -88 -103 -182 -2 -99 61 -163 153 -154 99
11 170 156 126 260 -29 69 -110 104 -176 76z"/>
<path d="M2780 4292 c-92 -46 -110 -236 -29 -308 69 -61 164 -23 194 79 25 85
-1 172 -65 218 -39 27 -63 30 -100 11z"/>
<path d="M5644 2655 c-4 -9 -4 -18 -1 -21 3 -3 58 -5 123 -5 175 1 160 -1 140
19 -25 25 -253 32 -262 7z"/>
<path d="M5675 2590 c-3 -5 -1 -10 5 -10 7 0 23 -9 38 -20 29 -24 58 -11 32
14 -20 18 -67 29 -75 16z"/>
<path d="M5692 2472 c3 -15 17 -17 108 -19 58 -1 138 -2 178 -4 79 -2 95 3 61
21 -14 8 -84 14 -186 16 -152 4 -164 3 -161 -14z"/>
<path d="M7093 1527 c5 -15 37 -22 37 -9 0 5 -9 12 -21 15 -13 3 -19 1 -16 -6z"/>
<path d="M7282 1410 c0 -14 2 -19 5 -12 2 6 2 18 0 25 -3 6 -5 1 -5 -13z"/>
<path d="M7147 1203 c-4 -6 0 -13 8 -17 8 -3 17 0 21 6 4 6 3 8 -4 4 -5 -3
-12 -1 -14 6 -3 8 -6 9 -11 1z"/>
<path d="M7070 1091 c0 -6 4 -13 10 -16 6 -3 7 1 4 9 -7 18 -14 21 -14 7z"/>
<path d="M7470 1001 c0 -6 4 -13 10 -16 6 -3 7 1 4 9 -7 18 -14 21 -14 7z"/>
<path d="M7526 977 c3 -10 9 -15 12 -12 3 3 0 11 -7 18 -10 9 -11 8 -5 -6z"/>
<path d="M7560 961 c18 -35 81 -73 100 -61 7 4 20 6 28 3 10 -4 13 0 10 13 -2
12 -12 19 -26 19 -12 0 -30 8 -40 16 -17 15 -20 15 -31 0 -11 -15 -12 -15 -7
0 3 12 -3 18 -19 21 -20 4 -23 2 -15 -11z"/>
<path d="M7496 824 c-5 -19 0 -35 21 -62 46 -62 98 -88 136 -70 21 11 23 32 2
24 -8 -3 -14 -2 -14 2 3 19 -14 51 -24 45 -6 -4 -8 0 -4 11 4 11 3 15 -4 10
-6 -3 -17 3 -25 15 -8 12 -24 21 -35 21 -10 0 -19 5 -19 12 0 6 -7 3 -15 -8
-14 -18 -14 -18 -8 4 3 12 3 22 0 22 -3 0 -8 -12 -11 -26z"/>
<path d="M2524 916 c-5 -14 -9 -15 -15 -4 -6 9 -9 9 -9 1 0 -6 4 -14 9 -17 11
-7 36 22 28 31 -4 3 -10 -2 -13 -11z"/>
<path d="M2157 882 c-35 -28 -42 -40 -41 -67 0 -19 -3 -32 -7 -29 -4 2 -10 -2
-12 -8 -4 -9 -6 -8 -6 3 -1 8 4 20 10 26 6 6 8 16 4 22 -7 13 -75 -49 -75 -69
0 -6 -4 -9 -8 -6 -4 3 -23 -18 -41 -46 -24 -36 -30 -53 -22 -61 8 -8 11 -7 11
3 0 10 4 9 13 -4 11 -15 13 -14 15 11 1 15 7 29 12 31 13 5 13 32 -1 32 -5 0
-7 5 -4 11 5 6 13 3 22 -10 13 -20 40 -31 29 -12 -3 5 1 12 10 15 8 3 12 10 9
16 -3 5 0 8 7 5 21 -7 61 32 54 52 -6 17 -5 17 8 0 13 -17 14 -16 19 2 3 12
12 19 23 17 9 -2 34 0 55 4 40 8 53 4 62 -20 5 -13 6 -13 6 1 1 13 10 15 43
13 23 -2 48 2 55 8 7 6 13 7 13 3 0 -4 7 -2 15 5 8 6 18 9 23 6 5 -3 19 5 31
18 13 14 18 26 12 30 -5 4 -17 -4 -27 -16 -9 -13 -14 -16 -11 -6 9 26 -4 29
-25 5 -15 -17 -18 -18 -14 -5 3 10 1 17 -6 15 -6 -1 -13 4 -16 12 -2 8 -1 11
4 9 5 -3 18 -2 29 2 12 5 -33 9 -108 11 l-128 4 -42 -33z m183 8 c0 -5 -5 -10
-11 -10 -5 0 -7 5 -4 10 3 6 8 10 11 10 2 0 4 -4 4 -10z m-266 -102 c-5 -7
-10 -22 -11 -32 -4 -23 -11 -32 -19 -23 -3 3 2 22 11 42 10 19 20 34 22 31 3
-3 1 -11 -3 -18z"/>
<path d="M2468 903 c7 -3 16 -2 19 1 4 3 -2 6 -13 5 -11 0 -14 -3 -6 -6z"/>
<path d="M2356 674 c-10 -37 -2 -39 11 -4 6 17 8 30 3 30 -4 0 -11 -12 -14
-26z"/>
<path d="M2320 685 c0 -5 5 -17 10 -25 5 -8 10 -10 10 -5 0 6 -5 17 -10 25 -5
8 -10 11 -10 5z"/>
<path d="M1938 613 c7 -3 16 -2 19 1 4 3 -2 6 -13 5 -11 0 -14 -3 -6 -6z"/>
</g>
</svg>
